<svg xmlns="http://www.w3.org/2000/svg" id="Layer_1" data-name="Layer 1" viewBox="0 0 600 600"><defs><style>.cls-2{fill:#b5d4f4}.cls-3{fill:#eff1f7}.cls-4{fill:#83a6ff}.cls-5{fill:#d3edd5}.cls-6{fill:#36f}.cls-7{fill:#5c8bff}.cls-8{fill:#42d38d}.cls-9{fill:#29b770}.cls-10{fill:#228c59}.cls-11{fill:#fff8e6}.cls-13{fill:#40b580}.cls-14{fill:#cde4f9}.cls-15{fill:#ebf2fc}.cls-16{fill:#b3d8f4}.cls-17{fill:#a3e5c3}.cls-18{fill:#4edd99}.cls-21{fill:#115b38}</style></defs><circle cx="300" cy="300" r="295.5" fill="#fff"/><path d="M145.18 487.94a233.67 233.67 0 0 1-31.6-2c-19.42-2.69-31-7.68-31.81-13.68-.91-6.8 4.31-10.34 9.37-13.76 4.13-2.8 8-5.45 8.28-9.67.42-7.51 5.37-9.56 5.58-9.64l.46 1.17-.23-.58.24.58c-.18.08-4.41 1.88-4.79 8.54-.27 4.85-4.62 7.8-8.83 10.65-4.95 3.35-9.63 6.52-8.83 12.54.7 5.24 12.48 10.06 30.73 12.59 20.63 2.85 46.54 2.6 73-.71l9-1.13c38.92-4.86 69.67-8.7 70.74-13.92.26-1.25-1.62-2.65-3.24-3.6-6.17-3.62-9.07-8.23-8-12.67 1.73-7 12.67-11.75 28.55-12.45 22.48-1 49.75.36 52.63 7.44.75 1.86-.12 3.93-2.61 6.14-4.49 4-12.07 7.55-19.39 11-8.31 3.89-16.9 7.91-16.86 11.23 0 1.36 1.56 2.73 4.6 4.06 10.63 4.69 38.59-1.35 65.62-7.18 23.83-5.15 46.33-10 58.22-8.14 7.07 1.11 13 2.39 18.15 3.51 13.85 3 23.86 5.16 43.49 1.89 17-2.85 22-6.9 23.09-9.8.68-1.74.23-3.64-1.33-5.64-1.35-1.73-2.8-2.17-4.62-2.74a16.23 16.23 0 0 1-8.7-5.69l1-.82a15 15 0 0 0 8.1 5.3 9.22 9.22 0 0 1 5.25 3.17c1.83 2.34 2.35 4.72 1.51 6.88-1.82 4.67-9.91 8.23-24.07 10.59-19.86 3.31-30 1.12-44-1.9-5.17-1.12-11-2.39-18.08-3.5-11.65-1.83-35.09 3.23-57.75 8.13-27.23 5.88-55.39 11.95-66.41 7.1-3.58-1.57-5.33-3.28-5.35-5.21-.05-4.13 8.12-8 17.59-12.39 7.24-3.39 14.73-6.9 19.09-10.78 2-1.81 2.81-3.4 2.27-4.71-2.09-5.17-23.23-7.9-51.39-6.65-18.29.81-26.13 6.46-27.38 11.48-.95 3.86 1.73 8 7.38 11.27 2.92 1.72 4.18 3.34 3.85 5-1.21 5.85-24.17 9-71.84 14.92l-9 1.13a338.58 338.58 0 0 1-41.68 2.65z" class="cls-2"/><path d="M76 240.32c-.64-4.37-21.57-134.4 38.05-119.17s75.63 98.76 116.78 99.49 92.53-88.37 138.84-64.44-14 138.73 18.51 151 92-81.6 123.3-66.6-19 113.21 3.65 126.63-29.28 82.15-29.28 82.15l-303 2z" class="cls-3"/><ellipse cx="145.59" cy="491.27" class="cls-3" rx="46.72" ry="13.77"/><path d="M188.85 324.58v33.93a5 5 0 0 1-5 5H34.27a5 5 0 0 1-5-5v-33.93a5 5 0 0 1 5-5h149.58a5 5 0 0 1 5 5z" class="cls-4"/><path d="M44.45 340.57a2.77 2.77 0 1 1-2.76-2.77 2.76 2.76 0 0 1 2.76 2.77zm12.46 0a2.77 2.77 0 1 1-2.77-2.77 2.77 2.77 0 0 1 2.77 2.77zm12.45 0a2.77 2.77 0 1 1-2.77-2.77 2.77 2.77 0 0 1 2.77 2.77z" class="cls-5"/><path d="M171.71 343.34h-36.4a2.76 2.76 0 0 1-2.76-2.77 2.76 2.76 0 0 1 2.76-2.77h36.4a2.77 2.77 0 0 1 2.77 2.77 2.77 2.77 0 0 1-2.77 2.77z" class="cls-6"/><rect width="159.59" height="43.93" x="28.3" y="363.51" class="cls-7" rx="7.89"/><path d="M44.46 385.47a2.77 2.77 0 1 1-2.77-2.76 2.77 2.77 0 0 1 2.77 2.76zm12.45 0a2.77 2.77 0 1 1-2.76-2.76 2.76 2.76 0 0 1 2.76 2.76zm12.46 0a2.77 2.77 0 1 1-2.77-2.76 2.77 2.77 0 0 1 2.77 2.76z" class="cls-5"/><path d="M171.72 388.24h-36.4a2.77 2.77 0 0 1-2.77-2.77 2.76 2.76 0 0 1 2.77-2.76h36.4a2.76 2.76 0 0 1 2.77 2.76 2.77 2.77 0 0 1-2.77 2.77z" class="cls-6"/><rect width="159.59" height="43.93" x="28.3" y="407.44" class="cls-4" rx="7.89"/><path d="M44.46 429.4a2.77 2.77 0 1 1-2.77-2.76 2.77 2.77 0 0 1 2.77 2.76zm12.45 0a2.77 2.77 0 1 1-2.76-2.76 2.76 2.76 0 0 1 2.76 2.76zm12.46 0a2.77 2.77 0 1 1-2.77-2.76 2.77 2.77 0 0 1 2.77 2.76z" class="cls-5"/><path d="M171.72 432.17h-36.4a2.77 2.77 0 0 1-2.77-2.77 2.76 2.76 0 0 1 2.77-2.76h36.4a2.76 2.76 0 0 1 2.77 2.76 2.77 2.77 0 0 1-2.77 2.77z" class="cls-6"/><path d="M189.37 236.65v33.93a5 5 0 0 1-5 5H34.79a5 5 0 0 1-5-5v-33.93a5 5 0 0 1 5-5h149.58a5 5 0 0 1 5 5z" class="cls-4"/><path d="M45 252.64a2.77 2.77 0 1 1-2.77-2.77 2.77 2.77 0 0 1 2.77 2.77zm12.43 0a2.77 2.77 0 1 1-2.77-2.77 2.77 2.77 0 0 1 2.77 2.77zm12.45 0a2.77 2.77 0 1 1-2.77-2.77 2.77 2.77 0 0 1 2.77 2.77z" class="cls-5"/><path d="M172.23 255.41h-36.4a2.77 2.77 0 0 1-2.77-2.77 2.77 2.77 0 0 1 2.77-2.77h36.4a2.77 2.77 0 0 1 2.77 2.77 2.77 2.77 0 0 1-2.77 2.77z" class="cls-6"/><rect width="159.59" height="43.93" x="28.81" y="275.58" class="cls-7" rx="7.89"/><path d="M45 297.54a2.77 2.77 0 1 1-2.77-2.76 2.77 2.77 0 0 1 2.77 2.76zm12.43 0a2.77 2.77 0 1 1-2.77-2.76 2.77 2.77 0 0 1 2.77 2.76zm12.45 0a2.77 2.77 0 1 1-2.77-2.76 2.77 2.77 0 0 1 2.77 2.76z" class="cls-5"/><path d="M172.23 300.31h-36.4a2.77 2.77 0 0 1-2.77-2.77 2.77 2.77 0 0 1 2.77-2.76h36.4a2.77 2.77 0 0 1 2.77 2.76 2.77 2.77 0 0 1-2.77 2.77z" class="cls-6"/><path d="M574.81 410.47v33.93a5 5 0 0 1-5 5H420.23a5 5 0 0 1-5-5v-33.93a5 5 0 0 1 5-5h149.58a5 5 0 0 1 5 5z" class="cls-4"/><path d="M455.32 426.46a2.77 2.77 0 1 1-2.77-2.77 2.77 2.77 0 0 1 2.77 2.77z" class="cls-5"/><path d="M557.67 429.23h-36.4a2.77 2.77 0 0 1-2.77-2.77 2.77 2.77 0 0 1 2.77-2.77h36.4a2.77 2.77 0 0 1 2.77 2.77 2.77 2.77 0 0 1-2.77 2.77z" class="cls-6"/><path d="M575.33 322.54v33.93a5 5 0 0 1-5 5H420.75a5 5 0 0 1-5-5v-33.93a5 5 0 0 1 5-5h149.58a5 5 0 0 1 5 5z" class="cls-4"/><path d="M430.93 338.53a2.77 2.77 0 1 1-2.77-2.77 2.77 2.77 0 0 1 2.77 2.77zm12.45 0a2.77 2.77 0 1 1-2.76-2.77 2.77 2.77 0 0 1 2.76 2.77zm12.46 0a2.77 2.77 0 1 1-2.77-2.77 2.77 2.77 0 0 1 2.77 2.77z" class="cls-5"/><path d="M558.19 341.3h-36.4a2.77 2.77 0 0 1-2.77-2.77 2.77 2.77 0 0 1 2.77-2.77h36.4a2.77 2.77 0 0 1 2.77 2.77 2.77 2.77 0 0 1-2.77 2.77z" class="cls-6"/><rect width="159.59" height="43.93" x="414.76" y="361.47" class="cls-7" rx="7.89"/><path d="M455.84 383.43a2.77 2.77 0 1 1-2.77-2.76 2.77 2.77 0 0 1 2.77 2.76z" class="cls-5"/><path d="M558.19 386.2h-36.4a2.77 2.77 0 0 1-2.77-2.77 2.76 2.76 0 0 1 2.77-2.76h36.4a2.76 2.76 0 0 1 2.77 2.76 2.77 2.77 0 0 1-2.77 2.77z" class="cls-6"/><ellipse cx="413.29" cy="525.16" class="cls-3" rx="46.72" ry="13.77"/><path d="M564.37 507.72v8.7c0 1.11-2.39 2.12-6.35 2.89l-.81.14a81.26 81.26 0 0 1-8.43 1l-.81.06c-2.63.17-5.47.26-8.43.27h-.82c-3 0-5.8-.1-8.43-.27l-.81-.06a80.93 80.93 0 0 1-8.43-1l-.81-.14c-4-.77-6.36-1.78-6.36-2.89v-8.7c0 1.11 2.4 2.12 6.36 2.89l.81.14a80.93 80.93 0 0 0 8.43 1l.81.06c2.63.17 5.47.26 8.43.27h.82c3 0 5.8-.1 8.43-.27l.81-.06a81.26 81.26 0 0 0 8.43-1l.81-.14c3.98-.77 6.35-1.78 6.35-2.89z" class="cls-8"/><ellipse cx="539.13" cy="507.72" class="cls-9" rx="25.25" ry="4.35"/><path d="M521.05 510.75v8.7l-.81-.14v-8.7zm9.24 1.05v8.7l-.81-.06v-8.7zm8.43.27h.82v8.7h-.82zm10.06-.33v8.7l-.81.06v-8.7zm9.22-1.13v8.7l-.81.14v-8.7z" class="cls-10"/><path d="M539.54 511.29a107.59 107.59 0 0 1-15.32-1c-4.35-.67-6.56-1.54-6.56-2.6s2.21-1.93 6.56-2.6a121.47 121.47 0 0 1 30.64 0c4.35.67 6.55 1.54 6.55 2.6s-2.2 1.93-6.55 2.6a107.8 107.8 0 0 1-15.32 1zm0-6.61c-12.58 0-21.35 1.6-21.35 3s8.77 3 21.35 3 21.34-1.6 21.34-3-8.76-3-21.34-3z" class="cls-11"/><path d="M561.39 495.76v8.7c0 1.11-2.4 2.12-6.36 2.89l-.81.15a84.35 84.35 0 0 1-8.43 1l-.81.06c-2.63.17-5.47.26-8.43.27h-.82c-3 0-5.8-.1-8.43-.27l-.81-.06a84.35 84.35 0 0 1-8.43-1l-.81-.15c-4-.77-6.36-1.78-6.36-2.89v-8.7c0 1.11 2.4 2.12 6.36 2.89l.81.14a81.26 81.26 0 0 0 8.43 1l.81.06c2.63.17 5.47.26 8.43.27h.82c3 0 5.8-.1 8.43-.27l.81-.06a81.26 81.26 0 0 0 8.43-1l.81-.14c3.97-.77 6.36-1.78 6.36-2.89z" class="cls-8"/><path d="M561.39 495.76c0 2.41-11.31 4.35-25.25 4.35s-25.25-1.94-25.25-4.35 11.31-4.35 25.25-4.35 25.25 1.95 25.25 4.35z" class="cls-9"/><path d="M518.06 498.79v8.71l-.81-.15v-8.7zm9.24 1.05v8.7l-.81-.06v-8.7zm8.43.27h.82v8.7h-.82zm10.06-.33v8.7l-.81.06v-8.7zm9.21-1.13v8.7l-.81.15v-8.71z" class="cls-10"/><path d="M536.55 499.33a106.14 106.14 0 0 1-15.32-1c-4.35-.67-6.56-1.54-6.56-2.6s2.21-1.93 6.56-2.6a121.47 121.47 0 0 1 30.64 0c4.35.67 6.55 1.54 6.55 2.6s-2.2 1.93-6.55 2.6a106.34 106.34 0 0 1-15.32 1zm0-6.61c-12.58 0-21.35 1.6-21.35 3s8.77 3 21.35 3 21.35-1.6 21.35-3-8.77-3-21.35-3z" class="cls-11"/><path d="M530.1 487.15l3.87 7.79c.5 1-1.2 3-4.4 5.41-.21.16-.43.33-.66.49a81.67 81.67 0 0 1-7.1 4.64l-.71.42c-2.28 1.32-4.78 2.67-7.42 4l-.73.36c-2.66 1.31-5.24 2.49-7.67 3.51l-.76.31a82.84 82.84 0 0 1-8 2.87c-.27.09-.54.16-.8.23-3.88 1.08-6.47 1.24-7 .25l-3.87-7.79c.49 1 3.08.83 7-.25.26-.07.52-.14.79-.23a81.89 81.89 0 0 0 8-2.87l.76-.31c2.43-1 5-2.2 7.67-3.51l.73-.36a138 138 0 0 0 7.42-4l.71-.42a78.71 78.71 0 0 0 7.1-4.64l.67-.49c3.19-2.45 4.89-4.42 4.4-5.41z" class="cls-8"/><path d="M530.1 487.15c1.07 2.15-8.18 8.93-20.67 15.14s-23.46 9.5-24.53 7.35 8.18-8.93 20.66-15.14 23.44-9.5 24.54-7.35z" class="cls-9"/><path d="M492.66 509.16l3.88 7.79c-.27.09-.54.16-.8.23l-3.87-7.79c.26-.07.52-.14.79-.23zm8.74-3.16l3.88 7.79-.76.31-3.88-7.79z" class="cls-10"/><path d="M510.97 501.83h.82v8.7h-.82z" class="cls-10" transform="rotate(-26.46 511.297 506.136)"/><path d="M517.93 497.69l3.88 7.79-.71.42-3.88-7.79zm7.77-5.13l3.87 7.79c-.21.16-.43.33-.66.49l-3.91-7.79z" class="cls-10"/><path d="M509.45 501.41a106.92 106.92 0 0 1-14.15 5.95c-4.19 1.35-6.55 1.55-7 .6s1.11-2.72 4.71-5.25a121.68 121.68 0 0 1 27.43-13.65c4.19-1.34 6.55-1.54 7-.59s-1.12 2.71-4.71 5.24a106.74 106.74 0 0 1-13.28 7.7zm-2.94-5.92c-11.27 5.6-18.4 10.95-17.76 12.23s9.2-1.18 20.47-6.79S527.61 490 527 488.7s-9.23 1.18-20.49 6.79z" class="cls-11"/><path d="M299.86 515.31V524c0 1.11-2.4 2.12-6.35 2.89l-.82.14a81 81 0 0 1-8.42 1l-.82.06c-2.63.17-5.46.26-8.43.27h-.81c-3 0-5.8-.1-8.43-.27L265 528a81 81 0 0 1-8.42-1l-.82-.14c-3.95-.77-6.35-1.78-6.35-2.89v-8.7c0 1.11 2.4 2.11 6.35 2.88.27.06.53.1.82.15a83.87 83.87 0 0 0 8.42 1l.82.06c2.63.17 5.46.26 8.43.27h.75c3 0 5.8-.1 8.43-.27l.82-.06a83.87 83.87 0 0 0 8.42-1c.28-.05.55-.09.82-.15 3.97-.73 6.37-1.73 6.37-2.84z" class="cls-8"/><ellipse cx="274.61" cy="515.31" class="cls-9" rx="25.25" ry="4.35"/><path d="M256.54 518.34V527l-.82-.14v-8.71c.28.1.53.14.82.19zm9.24 1.05v8.7L265 528v-8.7zm8.43.27h.82v8.7h-.82zm10.06-.33V528l-.82.06v-8.7zm9.24-1.14v8.71l-.82.14v-8.7c.31-.05.55-.09.82-.15z" class="cls-10"/><path d="M275 518.88a107.7 107.7 0 0 1-15.32-1c-4.35-.67-6.55-1.54-6.55-2.6s2.2-1.93 6.55-2.6a121.47 121.47 0 0 1 30.64 0c4.35.67 6.56 1.54 6.56 2.6s-2.21 1.93-6.56 2.6a107.59 107.59 0 0 1-15.32 1zm0-6.61c-12.58 0-21.35 1.6-21.35 3s8.77 3 21.35 3 21.35-1.6 21.35-3-8.75-3-21.35-3z" class="cls-11"/><path d="M273.93 503.93l1.89 8.49c.24 1.08-1.88 2.58-5.57 4.2l-.77.32a80 80 0 0 1-8 2.79l-.78.24c-2.53.73-5.28 1.44-8.17 2.1l-.79.18c-2.9.63-5.69 1.15-8.29 1.56-.27.05-.54.08-.81.12a79.37 79.37 0 0 1-8.44.87h-.83c-4 .1-6.58-.36-6.82-1.44l-1.9-8.49c.24 1.08 2.8 1.54 6.83 1.43h.83a82.36 82.36 0 0 0 8.44-.87l.81-.12c2.6-.41 5.39-.93 8.28-1.57l.8-.17c2.89-.66 5.64-1.37 8.17-2.11l.78-.23a82.42 82.42 0 0 0 8-2.8l.76-.32c3.7-1.6 5.82-3.11 5.58-4.18z" class="cls-8"/><path d="M273.93 503.93c.52 2.34-10.09 6.7-23.7 9.73s-25.06 3.6-25.59 1.25 10.09-6.71 23.7-9.74 25.06-3.59 25.59-1.24z" class="cls-9"/><path d="M232.3 516.31l1.89 8.49h-.83l-1.89-8.5zm9.25-.99l1.89 8.49c-.27.05-.54.08-.81.12l-1.89-8.49z" class="cls-10"/><path d="M250.77 513.56h.82v8.7h-.82z" class="cls-10" transform="rotate(-12.56 251.275 518.037)"/><path d="M259.58 511.24l1.89 8.49-.78.24-1.89-8.5zm8.77-3.12l1.9 8.5-.77.32-1.89-8.5z" class="cls-10"/><path d="M250.46 512.81a106.69 106.69 0 0 1-15.17 2.39c-4.39.29-6.73-.08-7-1.11s1.73-2.37 5.83-4a104.51 104.51 0 0 1 14.75-4.28 106.57 106.57 0 0 1 15.16-2.39c4.39-.3 6.73.08 7 1.11s-1.73 2.37-5.83 4a107.07 107.07 0 0 1-14.74 4.28zm-1.46-6.45c-12.28 2.74-20.49 6.21-20.17 7.61s9.21 1.06 21.49-1.67 20.49-6.21 20.18-7.61-9.2-1.07-21.5 1.67z" class="cls-11"/><path fill="#ededed" d="M417.65 211.12l1.62 7.07 94.89 18.39 7.93-5.39-3.07-13.32 4.69-6.75-3.93-2.52-102.13 2.52z"/><path d="M402.29 412c0 8-39.21 14.51-89.38 15.26-3.16 0-6.37-.08-9.61-.08s-6.46 0-9.62.08c-50.16-.75-89.38-7.3-89.38-15.26 0-8.48 44.32-15.34 99-15.34s98.99 6.87 98.99 15.34z" class="cls-9"/><path d="M402.29 412v30.53c0 8.47-44.32 15.33-99 15.33s-99-6.86-99-15.33V412c0 8 39.22 14.51 89.38 15.26q4.74.08 9.62.07c3.24 0 6.45 0 9.61-.07 50.18-.74 89.39-7.26 89.39-15.26z" class="cls-8"/><path d="M458.69 107.8l1.85 15.03 13.69 1.41-1.52-16.44h-14.02z" class="cls-5"/><path d="M474.23 124.24l1.59-1.24-1.55-16-1.56.8 1.52 16.44z" class="cls-7"/><path d="M474.27 107h-13.79l-1.79.8h14.02l1.56-.8z" class="cls-4"/><path d="M227.5 386l-45.7-97.6a2.38 2.38 0 0 1 .45-2.68L204.3 263v5.92L188 286.46a2.4 2.4 0 0 0-.41 2.64l43.65 93.21 1.49 4.69z" class="cls-9"/><path d="M379.09 386v23.37c0 1.89-2.87 3.68-8 5.25-12.44 3.86-38.13 6.49-67.81 6.49-23.34 0-44.21-1.63-58.11-4.19-11-2.05-17.69-4.67-17.69-7.55V386c0 6.1 30 11.11 68.43 11.68q3.63.06 7.37.06c2.48 0 4.94 0 7.36-.06 38.42-.61 68.45-5.62 68.45-11.68z" class="cls-8"/><path d="M288.41 409.83a3.09 3.09 0 1 1-3.09-3.09 3.1 3.1 0 0 1 3.09 3.09zm17.98 0a3.09 3.09 0 1 1-3.09-3.09 3.1 3.1 0 0 1 3.09 3.09zm17.97 0a3.09 3.09 0 1 1-3.09-3.09 3.09 3.09 0 0 1 3.09 3.09zm-41.1 33.94a4.16 4.16 0 1 1-4.15-4.16 4.15 4.15 0 0 1 4.15 4.16zm24.19 0a4.16 4.16 0 1 1-4.15-4.16 4.15 4.15 0 0 1 4.15 4.16zm24.19 0a4.16 4.16 0 1 1-4.15-4.16 4.15 4.15 0 0 1 4.15 4.16z" class="cls-11"/><path d="M267.11 375.64v2.07l-2.46.53v-2.39l-.84.08c-.46 0-.91.08-1.35.12 0-.28-.73-7.31.37-8.33 1.82-1.69 4.36-1 4.28 3.81 0 1.82-.01 3.15 0 4.11z" class="cls-8"/><path d="M379.09 386c0 6.1-30 11.11-68.43 11.68-2.42 0-4.88-.05-7.36-.05s-4.95 0-7.37.05c-38.4-.57-68.43-5.58-68.43-11.68 0-4.16 13.95-7.81 35-9.91.44 0 .89-.09 1.35-.12l.84-.08v2.39l2.46-.53v-2.07c10.75-.91 23.08-1.43 36.19-1.43 41.82-.04 75.75 5.22 75.75 11.75z" class="cls-9"/><path d="M264.68 369.74v6.11l-.84.08v-2.82a7.38 7.38 0 0 1 .84-3.37z" class="cls-13"/><path d="M343 376v2.07l2.46.53v-2.38l.84.07 1.36.13c0-.28.72-7.31-.38-8.34-1.82-1.69-4.36-.95-4.28 3.81V376z" class="cls-8"/><path d="M345.38 370.1v6.11l.84.07s.06-.75 0-2.81a7.32 7.32 0 0 0-.84-3.37z" class="cls-13"/><path d="M230 443.78a3.09 3.09 0 0 0-1.91 3.06c0 2.44 1.64 5.55 0 6.93s-3 2.11-3 3.12v1.58l2.22.64s-.44-1.77.48-2.7 2.17-1.32 2.8-2.64-.75-6 0-7.12a7.55 7.55 0 0 1 1.5-1.59s-.07-.28-.86-.89-1.23-.39-1.23-.39zm141.14 0a3.09 3.09 0 0 1 1.9 3.06c0 2.44-1.64 5.55 0 6.93s3 2.11 3 3.12v1.58l-2.22.64s.45-1.77-.48-2.7-2.16-1.32-2.8-2.64.76-6 0-7.12a7.66 7.66 0 0 0-1.49-1.59s.07-.28.86-.89 1.23-.39 1.23-.39z" class="cls-9"/><path d="M329.83 387c0 2.13-10.51 3.89-24 4.09h-5.15c-13.44-.2-24-2-24-4.09 0-1.46 4.88-2.74 12.24-3.47h.77v.83l.86-.18v-.73c3.76-.31 8.08-.49 12.67-.49 14.78-.06 26.61 1.78 26.61 4.04z" class="cls-11"/><path d="M217.88 250.85v26.17l-13.58-8.09v-5.92l13.58-12.16z" class="cls-8"/><path d="M224.25 263.93v.95c-.06 1.7-.29 4.79-1.29 4.79s-1.2-2.84-1.27-4.58h.63A10.36 10.36 0 0 0 223 269a10.7 10.7 0 0 0 .65-4.05V263.13a11.06 11.06 0 0 0-.66-4.23 10.88 10.88 0 0 0-.64 4.14h-.64c.06-1.71.3-4.78 1.28-4.78s1.25 3.28 1.29 4.95c-.03.29-.03.56-.03.72zm3.99 0v.63c0 1.6-.24 5.11-1.3 5.11s-1.23-3.22-1.28-4.91l.64-.05a11.43 11.43 0 0 0 .64 4.28 11.25 11.25 0 0 0 .66-4.38v-1.23a11.41 11.41 0 0 0-.66-4.5 11.79 11.79 0 0 0-.65 4.41l-.64-.05c0-1.63.25-5 1.29-5s1.27 3.67 1.3 5.22zm5.07 0a1.51 1.51 0 0 1-2.95.45 1.63 1.63 0 0 1-.07-.45 1.57 1.57 0 0 1 .05-.37 1.51 1.51 0 0 1 3 .37zm-12.85.01a2.49 2.49 0 0 1-.34 1.27 2.6 2.6 0 0 1-2.28 1.34v-5.23a2.63 2.63 0 0 1 2.4 1.56 2.68 2.68 0 0 1 .22 1.06z" class="cls-4"/><path d="M223.61 263.11v1.82l-1.29.1h-.63l-1.56.12a2.49 2.49 0 0 0 .34-1.27 2.68 2.68 0 0 0-.22-1.06l1.43.1h.64zm3.99.27v1.23l-1.3.1-.64.05-1.42.12v-1.73l1.41.09.64.05zm.64 1.18v-1.14l2.1.14a1.57 1.57 0 0 0-.05.37 1.63 1.63 0 0 0 .07.45zM379.09 386l45.7-97.56a2.36 2.36 0 0 0-.45-2.68l-22-22.71v5.92l16.3 17.53a2.4 2.4 0 0 1 .41 2.64l-43.65 93.21-1.54 4.65z" class="cls-9"/><path d="M388.71 250.85v26.17l13.58-8.09v-5.92l-13.58-12.16z" class="cls-8"/><path d="M382.34 263.93v.95c.06 1.7.29 4.79 1.29 4.79s1.2-2.84 1.27-4.58h-.63a10.36 10.36 0 0 1-.64 3.95 10.7 10.7 0 0 1-.65-4.05V263.17a10.94 10.94 0 0 1 .65-4.23 10.79 10.79 0 0 1 .65 4.14h.63c-.06-1.71-.3-4.78-1.28-4.78s-1.24 3.28-1.29 4.95v.68zm-3.99 0v.63c0 1.6.23 5.11 1.29 5.11s1.24-3.22 1.28-4.91l-.63-.05a11.56 11.56 0 0 1-.65 4.28 11.13 11.13 0 0 1-.65-4.38v-1.23a11.41 11.41 0 0 1 .66-4.5 11.56 11.56 0 0 1 .65 4.41l.64-.05c-.05-1.63-.25-5-1.29-5s-1.27 3.67-1.29 5.22c-.01.18-.01.35-.01.47zm-5.07 0a1.51 1.51 0 0 0 3 .45 1.63 1.63 0 0 0 .07-.45 1.57 1.57 0 0 0-.05-.37 1.51 1.51 0 0 0-3 .37zm12.85.01a2.49 2.49 0 0 0 .34 1.27 2.6 2.6 0 0 0 2.28 1.34v-5.23a2.63 2.63 0 0 0-2.4 1.56 2.68 2.68 0 0 0-.22 1.06z" class="cls-4"/><path d="M383 263.11v1.82l1.29.1h.63l1.56.12a2.49 2.49 0 0 1-.34-1.27 2.68 2.68 0 0 1 .22-1.06l-1.43.1h-.63zm-4 .27v1.23l1.3.1.63.05 1.42.12v-1.73l-1.41.09-.64.05zm-.64 1.18V263.42l-2.11.14a1.57 1.57 0 0 1 .05.37 1.63 1.63 0 0 1-.07.45z" class="cls-9"/><path d="M333.88 282.69c-.16 1.54-.39 3-.63 4.51-.34 2.2-.73 4.34-1.17 6.39a110.59 110.59 0 0 1-5 17.42c-.79 2-1.62 4-2.47 5.8-6 12.68-13.81 19.91-21.33 19.91S288 329.49 282 316.81c-2.21.94-4.35 1.77-6.47 2.53C282.57 334 292.33 343 303.3 343s20.75-9 27.79-23.65c.9-1.83 1.73-3.73 2.51-5.73a119.49 119.49 0 0 0 6-20.93c.39-2.1.76-4.28 1.09-6.48q.82-5.39 1.24-11.08c-2.56 2.5-5.24 5.04-8.05 7.56zm8.53-25.05c-2.35-2.56-4.87-5.14-7.56-7.71.25 3.65.36 7.43.36 11.32s-.11 7.65-.36 11.31q4-3.87 7.56-7.71v-3.6c0-1.2.02-2.41 0-3.61zm-67.89 35.95c-.43-2-.83-4.19-1.15-6.39-.25-1.48-.48-3-.64-4.53-2.79-2.52-5.47-5-8-7.55.28 3.79.7 7.49 1.25 11.06.3 2.2.67 4.38 1.08 6.48a121.9 121.9 0 0 0 5.94 20.95c2.1-.76 4.27-1.64 6.5-2.6a112.78 112.78 0 0 1-4.98-17.42zm67.38-46.2q-3.79-3.81-8-7.59c-.19-1.52-.39-3-.63-4.5q-.51-3.28-1.17-6.41a111.57 111.57 0 0 0-5-17.4c-.79-2.06-1.62-4-2.47-5.81-6-12.67-13.81-19.92-21.33-19.92S288 193 282 205.68c-.87 1.82-1.7 3.75-2.49 5.81a113.8 113.8 0 0 0-5 17.4c-.43 2.08-.83 4.22-1.15 6.41-.25 1.48-.46 3-.64 4.52-.44 3.25-.77 6.61-1 10.09-.26 3.65-.37 7.45-.37 11.34s.11 7.67.37 11.33c-2.68-2.6-5.21-5.17-7.54-7.71 0-1.2-.05-2.4-.05-3.62s0-2.43.05-3.63c.07-3.48.23-6.91.5-10.25q.42-5.7 1.25-11.07c.3-2.19.67-4.35 1.08-6.45A120.63 120.63 0 0 1 273 208.9c.81-2 1.64-3.92 2.52-5.76 7.05-14.68 16.81-23.63 27.78-23.63s20.75 9 27.79 23.65c.9 1.84 1.73 3.76 2.51 5.74a119.73 119.73 0 0 1 6 20.95c.42 2.1.76 4.26 1.09 6.45q.79 5.4 1.21 11.09z" class="cls-6"/><path d="M256.54 256c1.38 1.72 2.86 3.47 4.4 5.25 1-1.2 2.15-2.41 3.28-3.63.07-3.48.23-6.91.5-10.25-2.9 2.88-5.65 5.77-8.18 8.63zm40.7-35.28q-5 3.33-9.94 7.09c-2.91 2.2-5.81 4.52-8.72 6.93-1 .82-2 1.66-2.95 2.52s-2 1.72-2.9 2.56c-.44 3.25-.77 6.61-1 10.09 2.81-2.72 5.81-5.48 9-8.21s6.36-5.36 9.5-7.79c3-2.34 5.95-4.5 8.87-6.54 1.41-1 2.82-1.91 4.2-2.83-2.05-1.34-4.06-2.62-6.06-3.82zm27.39-15a156.61 156.61 0 0 0-21.31 11.15c2 1.23 4 2.53 6.05 3.89a150.39 150.39 0 0 1 17.73-9.23c-.79-2.1-1.62-4.03-2.47-5.85z" class="cls-4"/><path d="M370.36 237.18c-.86 1.84-1.83 3.7-2.93 5.59a127.26 127.26 0 0 1-12.87 18.48c-1.43 1.74-2.93 3.5-4.47 5.26-2.56 2.85-5.28 5.73-8.19 8.59-2.53 2.53-5.21 5.07-8 7.59-.95.84-1.92 1.7-2.88 2.53l-3 2.52c-2.9 2.42-5.81 4.74-8.71 6.93q-5 3.78-10 7.09c-2 1.36-4.06 2.66-6.07 3.9a165.1 165.1 0 0 1-14.57 8.07c-2.28 1.12-4.52 2.14-6.74 3.08s-4.35 1.77-6.47 2.53c-8.49 3-16.31 4.64-22.95 4.64s-12.1-1.58-16-4.94c-7.75-6.71-7.35-19-.34-33.74.85-1.81 1.84-3.69 2.92-5.59A130.17 130.17 0 0 1 252 261.25c1.43 1.74 2.93 3.5 4.5 5.26a122.44 122.44 0 0 0-10.68 15.36c-1.11 1.94-2.1 3.79-3 5.61-6.11 12.65-6.51 22.51-1.18 27.13s16.72 4.27 31.29-1c2.1-.76 4.27-1.64 6.5-2.6a148.48 148.48 0 0 0 17.74-9.25c2-1.19 4-2.47 6.06-3.81 1.38-.92 2.79-1.86 4.2-2.84 2.93-2 5.88-4.21 8.88-6.53s6.31-5 9.5-7.79 6.18-5.49 9-8.23q4-3.87 7.56-7.71 1.69-1.8 3.25-3.6c1.57-1.78 3-3.53 4.43-5.27a122 122 0 0 0 10.65-15.34c1.13-1.94 2.12-3.82 3-5.64 3.25-6.75 4.89-12.72 4.89-17.51 0-4.18-1.25-7.46-3.72-9.61s-6.29-3.22-11.11-3.22c-5.53 0-12.41 1.42-20.2 4.24-.78-2-1.61-3.9-2.51-5.74 17-6.09 31.17-6.43 38.92.28s7.4 19.04.39 33.74z" class="cls-4"/><path d="M236.59 203.44c-3.87 3.36-5.72 8.11-5.72 13.85s1.85 12.52 5.38 19.89c.85 1.82 1.84 3.7 2.92 5.59 2.08-.75 4.32-1.45 6.69-2.15a97.89 97.89 0 0 1-3-5.62c-6.11-12.62-6.51-22.51-1.18-27.12s16.72-4.28 31.29 1c.81-2 1.64-3.92 2.52-5.76-16.95-6.05-31.15-6.39-38.9.32zm133.77 81.86c-.86-1.81-1.83-3.69-2.93-5.59a129.35 129.35 0 0 0-12.87-18.46c-1.43 1.74-2.93 3.5-4.47 5.26a123.35 123.35 0 0 1 10.65 15.34c1.11 1.94 2.12 3.81 3 5.63 6.09 12.63 6.5 22.51 1.17 27.13s-16.74 4.27-31.31-1q-3.15-1.14-6.5-2.58a148.39 148.39 0 0 1-17.73-9.25c-2 1.36-4.06 2.66-6.07 3.9a161.47 161.47 0 0 0 21.33 11.15c2.19.94 4.36 1.77 6.46 2.51 8.48 3.06 16.3 4.66 22.94 4.66s12.13-1.58 16-4.94c7.73-6.73 7.34-19.06.33-33.76zM350.09 256a140.99 140.99 0 0 1-4.43 5.27c-1-1.2-2.12-2.39-3.25-3.61-2.35-2.56-4.87-5.14-7.56-7.71-2.79-2.74-5.79-5.48-9-8.23s-6.37-5.36-9.53-7.79q-4.46-3.48-8.87-6.54c-1.39-1-2.8-1.91-4.18-2.83-2.05-1.34-4.06-2.62-6.06-3.82a148.18 148.18 0 0 0-17.74-9.23c.79-2.06 1.62-4 2.49-5.81a161.52 161.52 0 0 1 21.33 11.15c2 1.23 4 2.53 6.05 3.89 3.29 2.2 6.64 4.58 10 7.09 2.9 2.2 5.81 4.52 8.71 6.93l3 2.52 2.88 2.54q4.22 3.78 8 7.59c2.88 2.86 5.6 5.71 8.16 8.59z" class="cls-9"/><path d="M303.3 298c-2 1.34-4.06 2.62-6.06 3.81q-5-3.31-9.94-7.09a229.68 229.68 0 0 1-8.72-6.93c-1-.82-2-1.66-2.95-2.52s-2-1.69-2.9-2.55c-2.79-2.52-5.47-5-8-7.55-2.9-2.88-5.62-5.76-8.18-8.61-1.57-1.76-3.07-3.52-4.5-5.26a129.66 129.66 0 0 1-12.87-18.48c2.08-.75 4.32-1.45 6.69-2.15A123.29 123.29 0 0 0 256.54 256c1.38 1.72 2.86 3.47 4.4 5.25 1.06 1.2 2.15 2.4 3.28 3.62 2.33 2.54 4.86 5.11 7.54 7.71s5.81 5.47 9 8.21 6.36 5.35 9.52 7.79q4.46 3.48 8.88 6.53c1.35.98 2.76 1.89 4.14 2.89z" class="cls-9"/><circle cx="256.54" cy="342.97" r="8.07" class="cls-4"/><circle cx="350.09" cy="179.5" r="8.07" class="cls-9" transform="rotate(-76.77 350.084 179.498)"/><path d="M395.5 138.27l13.4 71.25 101.81 18.59-11.53-73.35-103.68-16.49z" class="cls-14"/><path d="M402.01 143.35l11.88 63.2 90.31 16.48-10.22-65.06-91.97-14.62z" class="cls-15"/><path d="M395.5 138.27l5.63-3.33 104.3 15.92-6.25 3.9-103.68-16.49z" class="cls-4"/><path d="M505.43 150.86l10.61 73.39-5.33 3.86-11.53-73.35 6.25-3.9z" class="cls-7"/><path d="M506.36 157.31l9.68 8.23 5.91 39.78-7.09 10.71-8.5-58.72z" class="cls-6"/><path d="M453.11 142.88l-5.31-12.27a1.72 1.72 0 0 1 .52-2l18.3-14.4a1.84 1.84 0 0 1 1.55.77 2.2 2.2 0 0 1 .41 1.63l-16 12.8a1.78 1.78 0 0 0-.55 2.15l5.37 12z" class="cls-4"/><path d="M479.73 211.68h-.11l-53.91-9a.63.63 0 0 1-.52-.5l-1.27-6.51a.64.64 0 0 1 .51-.74.63.63 0 0 1 .74.5l1.18 6.07 52.65 8.77-.83-5.8a.62.62 0 0 1 .54-.71.63.63 0 0 1 .72.53l.95 6.66a.63.63 0 0 1-.19.55.67.67 0 0 1-.46.18zM476 170.94a.64.64 0 0 1-.63-.52l-1.18-6.07-52.62-8.82.82 5.8a.63.63 0 1 1-1.25.18l-.95-6.66a.63.63 0 0 1 .18-.54.63.63 0 0 1 .55-.17l53.91 9a.63.63 0 0 1 .52.5l1.27 6.5a.64.64 0 0 1-.5.75z" class="cls-16"/><path d="M431.29 179.77a3 3 0 0 0 2.55 2.6l25.46 3.74a3 3 0 0 0 3.44-3.29v-.21a3 3 0 0 0-2.58-2.68l-25.45-3.53a3 3 0 0 0-3.42 3.37z" class="cls-4"/><path d="M431.38 180a3.54 3.54 0 0 0 3 3.07l13.78 2a3.56 3.56 0 0 0 4-4V181a3.56 3.56 0 0 0-3-3l-13.76-2a3.56 3.56 0 0 0-4.02 4zm-7.38-.41l-.06.39c0 .19-.06.37-.1.55a9.22 9.22 0 0 1-.43 1.5l-.21.5c-.52 1.09-1.19 1.71-1.84 1.71s-1.32-.62-1.83-1.71l-.56.22c.61 1.26 1.45 2 2.39 2s1.79-.77 2.4-2c.07-.15.14-.32.21-.49a10.63 10.63 0 0 0 .52-1.8l.09-.56c0-.31.08-.63.11-.95zm.73-2.16c-.2-.22-.42-.44-.65-.66v2c.23-.22.45-.45.65-.67v-.62zm-5.85 3.1c0-.18-.07-.36-.09-.55a2.63 2.63 0 0 1-.06-.39l-.69-.65c0 .32.06.64.11.95s.06.38.09.56a10.38 10.38 0 0 0 .51 1.8c.18-.06.37-.14.56-.22a11.79 11.79 0 0 1-.47-1.5zm5.77-3.98c-.22-.22-.45-.44-.69-.65l-.06-.39c0-.19-.06-.37-.1-.55a9.22 9.22 0 0 0-.43-1.5c-.07-.18-.14-.34-.21-.5-.52-1.09-1.19-1.72-1.84-1.72s-1.32.63-1.83 1.72c-.08.16-.15.32-.22.5a11.79 11.79 0 0 0-.43 1.5c0 .18-.07.36-.09.55s0 .26-.06.39a8 8 0 0 0-.08.87v2c-.23-.22-.45-.45-.65-.66v-1.51a9.17 9.17 0 0 1 .11-1c0-.19.06-.38.09-.56a10.38 10.38 0 0 1 .51-1.8c.07-.18.14-.34.22-.5.61-1.26 1.45-2 2.39-2s1.79.77 2.4 2l.21.5a10.36 10.36 0 0 1 .52 1.8l.09.56c.09.31.12.62.15.95z" class="cls-6"/><path d="M417.3 177.43c.12.14.24.3.38.45.09-.1.18-.21.28-.31v-.89c-.21.25-.44.5-.66.75zm3.5-3c-.28.19-.57.39-.85.61s-.5.39-.75.6l-.26.21-.25.22c0 .28-.06.57-.08.87l.77-.71c.28-.23.55-.46.82-.67l.8-.56.37-.24c-.22-.16-.37-.27-.57-.37zm2.36-1.3a12.94 12.94 0 0 0-1.83 1l.52.34a13.27 13.27 0 0 1 1.52-.8 4.4 4.4 0 0 0-.21-.58z" class="cls-9"/><path d="M427.1 175.81c-.07.15-.16.31-.25.48a11.57 11.57 0 0 1-1.11 1.59q-.18.23-.39.45c-.22.25-.45.49-.7.74s-.45.44-.69.65l-.25.22-.25.22q-.37.32-.75.6l-.86.61-.52.33a13.45 13.45 0 0 1-1.26.7l-.58.26c-.19.08-.38.16-.56.22a6 6 0 0 1-2 .4 2.05 2.05 0 0 1-1.38-.43c-.67-.57-.63-1.63 0-2.9.07-.16.16-.32.25-.48a11 11 0 0 1 1.11-1.59q.18.23.39.45a11 11 0 0 0-.92 1.32c-.1.17-.18.33-.26.49-.52 1.09-.56 1.94-.1 2.33s1.44.37 2.7-.08l.56-.23a13.11 13.11 0 0 0 1.52-.79l.53-.33.36-.25c.25-.17.5-.36.76-.56s.54-.43.82-.67.53-.47.77-.71.45-.44.65-.66l.28-.31c.14-.15.26-.31.38-.46a9.37 9.37 0 0 0 .92-1.32c.1-.16.18-.33.26-.48a3.65 3.65 0 0 0 .42-1.51 1.07 1.07 0 0 0-.32-.83 1.47 1.47 0 0 0-1-.27 5.44 5.44 0 0 0-1.74.36 3.61 3.61 0 0 0-.21-.49c1.46-.53 2.68-.56 3.35 0s.67 1.66.07 2.93z" class="cls-9"/><path d="M415.58 172.77a1.47 1.47 0 0 0-.49 1.19 4 4 0 0 0 .46 1.71c.07.16.16.32.25.48l.58-.18c-.1-.17-.18-.33-.26-.49-.53-1.08-.56-1.93-.1-2.33s1.44-.37 2.69.09c.07-.18.14-.34.22-.5-1.46-.52-2.68-.55-3.35.03zm11.52 7l-.25-.49a11.57 11.57 0 0 0-1.11-1.59l-.39.46a10.29 10.29 0 0 1 .92 1.32l.26.48c.52 1.09.56 1.94.1 2.34s-1.44.37-2.7-.09c-.18-.06-.37-.14-.56-.22a13.27 13.27 0 0 1-1.52-.8l-.53.34a13.6 13.6 0 0 0 1.84 1l.56.21a5.83 5.83 0 0 0 2 .41 2.05 2.05 0 0 0 1.38-.43c.63-.57.6-1.63 0-2.89zm-1.75-2.48c-.12.15-.24.3-.38.45l-.28-.31c-.2-.22-.42-.44-.65-.66s-.5-.47-.77-.71-.55-.46-.82-.67-.51-.39-.77-.56l-.36-.25-.52-.33a12.45 12.45 0 0 0-1.53-.79c.07-.18.14-.34.22-.5a13.6 13.6 0 0 1 1.84 1l.52.33c.28.19.57.4.85.61s.5.39.75.6l.26.22.25.22c.24.21.47.43.69.65s.48.41.7.7z" class="cls-4"/><path d="M421.32 180.9c-.17.12-.35.23-.52.33-.28-.19-.57-.39-.86-.61l-.75-.59-.25-.22-.25-.22-.69-.65c-.25-.25-.48-.5-.7-.74s-.27-.31-.39-.46a11 11 0 0 1-1.11-1.59l.58-.18a9.37 9.37 0 0 0 .92 1.32c.12.15.24.3.38.45l.28.32c.2.21.42.44.65.66l.77.71c.27.23.55.46.82.67l.76.56c.12.08.24.17.36.24z" class="cls-4"/><circle cx="417.3" cy="184.78" r=".69" class="cls-4"/><path d="M426.05 170.7a.7.7 0 1 1-.7-.69.7.7 0 0 1 .7.69z" class="cls-9"/><path d="M491.41 185.29l.27 4.16a.53.53 0 0 1-.64.53l-20.15-2.33a.82.82 0 0 1-.72-.69l-.27-4.15a.53.53 0 0 1 .64-.54l20.15 2.33a.8.8 0 0 1 .72.69z" class="cls-7"/><path d="M472.08 185a.29.29 0 0 1-.35.3.45.45 0 0 1-.4-.38.29.29 0 0 1 .35-.3.45.45 0 0 1 .4.38zm1.68.2a.29.29 0 0 1-.35.29.44.44 0 0 1-.4-.38.29.29 0 0 1 .35-.3.47.47 0 0 1 .4.39zm1.67.19c0 .19-.14.32-.35.3a.46.46 0 0 1-.39-.39.28.28 0 0 1 .31-.3.43.43 0 0 1 .43.39z" class="cls-5"/><path d="M489.25 187.32l-4.91-.57a.44.44 0 0 1-.39-.38.28.28 0 0 1 .35-.29l4.9.56a.46.46 0 0 1 .4.39.29.29 0 0 1-.35.29z" class="cls-6"/><path d="M491.06 179.9l.27 4.16a.53.53 0 0 1-.64.53l-20.15-2.32a.84.84 0 0 1-.72-.69l-.27-4.16a.53.53 0 0 1 .64-.54l20.15 2.33a.82.82 0 0 1 .72.69z" class="cls-4"/><path d="M471.73 179.61a.29.29 0 0 1-.35.3.45.45 0 0 1-.4-.38.29.29 0 0 1 .35-.3.47.47 0 0 1 .4.38zm1.67.2a.28.28 0 0 1-.35.29.44.44 0 0 1-.39-.38.28.28 0 0 1 .35-.29.43.43 0 0 1 .39.38zm1.68.19c0 .19-.14.32-.35.3a.46.46 0 0 1-.39-.38c0-.19.14-.32.35-.3a.44.44 0 0 1 .39.38z" class="cls-5"/><path d="M488.9 181.93l-4.91-.56a.46.46 0 0 1-.39-.39.28.28 0 0 1 .35-.29l4.9.56a.47.47 0 0 1 .4.39.29.29 0 0 1-.35.29z" class="cls-6"/><path d="M491.84 190.73l.27 4.15a.53.53 0 0 1-.64.54l-20.15-2.33a.82.82 0 0 1-.72-.69l-.27-4.15a.53.53 0 0 1 .64-.54l20.15 2.29a.8.8 0 0 1 .72.73z" class="cls-4"/><path d="M472.51 190.44a.29.29 0 0 1-.35.3.46.46 0 0 1-.4-.39.29.29 0 0 1 .35-.29.44.44 0 0 1 .4.38zm1.68.19a.29.29 0 0 1-.35.3.44.44 0 0 1-.4-.38.29.29 0 0 1 .35-.3.47.47 0 0 1 .4.38zm1.67.2a.28.28 0 0 1-.35.29.44.44 0 0 1-.39-.38.28.28 0 0 1 .35-.29.43.43 0 0 1 .39.38z" class="cls-5"/><path d="M489.68 192.76l-4.91-.57a.44.44 0 0 1-.39-.38.29.29 0 0 1 .35-.3l4.9.57a.45.45 0 0 1 .4.38.29.29 0 0 1-.35.3z" class="cls-6"/><path d="M449.63 202.27l-.08 6.33-4.1-3.31 4.18-3.02zm-3.34-39.74l.08-6.33 4.11 3.31-4.19 3.02z" class="cls-16"/><path d="M371.11 414.58v.23c0 5.45-28.5 9.86-63.66 9.86-30.59 0-56.14-3.34-62.26-7.79 13.9 2.56 34.77 4.19 58.11 4.19 29.7 0 55.37-2.63 67.81-6.49z" class="cls-13"/><path d="M243 265.21a.36.36 0 0 1-.2-.06c-.28-.17-.3-.56-.3-1.52a5.52 5.52 0 0 0-.22-2 4.42 4.42 0 0 0-.19.74c-.15.69-.31 1.48-.91 1.36a.69.69 0 0 1-.51-.35c-.17.46-.41 1-1 1s-.64-.64-.67-1c0-.09 0-.22-.05-.32-.09.18-.2.47-.28.69-.31.81-.62 1.66-1.25 1.45a1.53 1.53 0 0 1-.92-.88h-1.87a.32.32 0 1 1 0-.63H237l.06.25a1 1 0 0 0 .54.64 4.39 4.39 0 0 0 .5-1.06c.26-.69.42-1.09.72-1.21a.44.44 0 0 1 .37 0c.38.18.42.63.46 1a1.16 1.16 0 0 0 .09.44c.1 0 .29-.46.36-.64.13-.38.25-.7.53-.81a.41.41 0 0 1 .41 0 .54.54 0 0 1 .16.51v.26a5.2 5.2 0 0 0 .23-.84c.13-.65.24-1.16.61-1.29a.52.52 0 0 1 .55.13c.46.38.5 1.3.5 2.54v.12c.06-.34.15-.63.42-.73a.61.61 0 0 1 .61.17 5.17 5.17 0 0 1 .65.68 4.17 4.17 0 0 0 .39.42 4.48 4.48 0 0 0 .21-.55c.18-.5.34-1 .75-1.06a.82.82 0 0 1 .74.29 3.57 3.57 0 0 1 .71 1.13v.08c.05-.14.11-.32.14-.43.12-.39.21-.7.52-.73.12 0 .3 0 .43.31l.08.15c0-.81 0-1.78.72-1.94a.41.41 0 0 1 .39.09c.22.18.2.49.18.86a2 2 0 0 0 0 .5c.09.07.46 0 .76-.07.59-.13 1.4-.3 1.88.36a1.75 1.75 0 0 1 .24.73 1.16 1.16 0 0 0 .12-.86 1.91 1.91 0 0 1 .63-1.83.36.36 0 0 1 .46.17 1.25 1.25 0 0 1 .08.57 1.42 1.42 0 0 0 .07.59 2.19 2.19 0 0 1 .37-.11 1.22 1.22 0 0 1 1.06 0 .75.75 0 0 1 .26.61c.21-.85.29-1.12.6-1.12a.35.35 0 0 1 .36.29 4.12 4.12 0 0 1 .12.73v.08-.11c.12-.38.19-.63.46-.65a.34.34 0 0 1 .36.22 3.34 3.34 0 0 1 .18.48c0 .1.08.22.12.34.19-.41.38-.79.72-.8a.52.52 0 0 1 .46.32c.08.15.15.3.21.43a1.17 1.17 0 0 1 0 .11c.07-.25.15-.5.4-.56a.39.39 0 0 1 .39.12l.18.2c.12.15.12.15.19.14h2.8a.32.32 0 0 1 .31.32.32.32 0 0 1-.32.32h-2.75a.75.75 0 0 1-.62-.26c-.07.24-.16.47-.38.55-.44.16-.64-.28-.83-.68l-.1-.22c-.06.11-.11.24-.15.33a2.62 2.62 0 0 1-.22.42.39.39 0 0 1-.38.19c-.27 0-.41-.3-.58-.79-.11.31-.25.56-.52.6a.46.46 0 0 1-.34-.08.75.75 0 0 1-.24-.43c-.23.92-.33 1.22-.62 1.28a.44.44 0 0 1-.37-.09c-.21-.18-.2-.46-.18-1v-.64a.26.26 0 0 0 0-.13 2 2 0 0 0-.5.09c-.36.09-.78.19-1-.11a.84.84 0 0 1-.16-.33 1 1 0 0 0 0 .25 2 2 0 0 1-.56 1.87.41.41 0 0 1-.42.11c-.26-.09-.3-.36-.36-.71a1.7 1.7 0 0 0-.14-.58c-.22-.31-.64-.25-1.24-.12s-1 .2-1.34-.11a.83.83 0 0 1-.2-.63v.73a5.59 5.59 0 0 1 0 .58c0 .15 0 .53-.35.6s-.48-.22-.73-.7a1.8 1.8 0 0 1-.42.84.48.48 0 0 1-.42.12c-.25-.06-.36-.3-.5-.61a2.76 2.76 0 0 0-.58-.94.89.89 0 0 0-.17-.13 3.93 3.93 0 0 0-.27.66 5.53 5.53 0 0 1-.24.61.66.66 0 0 1-.49.43c-.37.05-.65-.29-1-.67a4.33 4.33 0 0 0-.55-.58l-.07.36c-.07.43-.15.92-.51 1.11a.54.54 0 0 1 0 .03zm120.57 0a.46.46 0 0 1-.2 0c-.37-.19-.45-.68-.52-1.11l-.07-.36a4.33 4.33 0 0 0-.55.58c-.32.38-.61.72-1 .67a.66.66 0 0 1-.5-.43 5.53 5.53 0 0 1-.24-.61 2.09 2.09 0 0 0-.3-.65s-.05 0-.14.12a2.76 2.76 0 0 0-.58.94c-.14.31-.24.55-.5.61a.48.48 0 0 1-.42-.12 1.8 1.8 0 0 1-.42-.84c-.25.48-.43.76-.73.7s-.34-.45-.35-.6a5.59 5.59 0 0 1 0-.58v-.72a.87.87 0 0 1-.21.62c-.34.31-.85.21-1.34.11s-1-.19-1.24.12a1.7 1.7 0 0 0-.14.58c-.06.35-.1.62-.35.71a.42.42 0 0 1-.43-.11 2 2 0 0 1-.56-1.87.67.67 0 0 0 0-.25.84.84 0 0 1-.16.33c-.24.3-.66.2-1 .11a1.51 1.51 0 0 0-.51-.08.55.55 0 0 0 0 .12v.64c0 .57 0 .85-.18 1a.44.44 0 0 1-.37.09c-.29-.06-.39-.36-.62-1.28a.7.7 0 0 1-.24.43.42.42 0 0 1-.34.08c-.27 0-.41-.29-.52-.6-.17.49-.31.75-.58.79a.39.39 0 0 1-.38-.19 2 2 0 0 1-.21-.42c0-.09-.1-.22-.16-.33l-.1.22c-.19.4-.39.84-.83.68-.22-.08-.31-.31-.38-.55a.77.77 0 0 1-.62.26h-2.75a.32.32 0 0 1-.32-.32.32.32 0 0 1 .32-.32h2.79c.07 0 .08 0 .19-.14l.18-.2a.4.4 0 0 1 .4-.12c.24.06.32.31.39.56l.05-.11c.06-.13.13-.28.21-.43a.51.51 0 0 1 .46-.32c.35 0 .53.39.72.8l.12-.34a3.34 3.34 0 0 1 .18-.48.34.34 0 0 1 .36-.22c.27 0 .35.27.46.65v.11a.25.25 0 0 0 0-.08 5.3 5.3 0 0 1 .12-.73c.09-.28.29-.31.36-.29.31 0 .39.27.61 1.12a.71.71 0 0 1 .25-.61 1.22 1.22 0 0 1 1.06 0 2.15 2.15 0 0 0 .42.08 2.94 2.94 0 0 0 0-.56 1.25 1.25 0 0 1 .08-.57.36.36 0 0 1 .46-.17 1.91 1.91 0 0 1 .63 1.83 1.16 1.16 0 0 0 .12.86 1.75 1.75 0 0 1 .24-.73c.48-.66 1.29-.49 1.88-.36.3.06.68.14.78 0a4 4 0 0 0 0-.47c0-.37 0-.68.18-.86a.41.41 0 0 1 .39-.09c.73.16.73 1.13.72 1.94l.08-.15c.13-.27.31-.32.43-.31.31 0 .4.34.52.73 0 .11.09.29.14.43a.3.3 0 0 0 0-.08 3.57 3.57 0 0 1 .71-1.13.83.83 0 0 1 .74-.29c.41.09.57.56.75 1.06a4.48 4.48 0 0 0 .21.55 4.17 4.17 0 0 0 .39-.42 5.17 5.17 0 0 1 .65-.68.61.61 0 0 1 .74-.16c.27.1.36.39.43.73v-.12c0-1.24 0-2.16.5-2.54a.53.53 0 0 1 .55-.13c.37.13.48.64.61 1.29a4.29 4.29 0 0 0 .24.84v-.26a.54.54 0 0 1 .16-.51.41.41 0 0 1 .41 0c.28.11.4.43.53.81.07.17.24.64.35.64a1.16 1.16 0 0 0 .09-.44c0-.35.09-.8.46-1a.44.44 0 0 1 .37 0c.3.12.46.52.73 1.21a3.75 3.75 0 0 0 .5 1.06 1 1 0 0 0 .54-.65l.06-.24h2.35a.32.32 0 0 1 0 .63H370a1.53 1.53 0 0 1-.92.88c-.62.2-.94-.64-1.25-1.45a7.6 7.6 0 0 0-.28-.69 1.87 1.87 0 0 0 0 .32c0 .36-.1 1-.68 1s-.8-.52-1-1a.66.66 0 0 1-.51.35c-.61.12-.76-.67-.91-1.36a4.87 4.87 0 0 0-.18-.73 5.36 5.36 0 0 0-.23 2c0 1 0 1.35-.3 1.52a.36.36 0 0 1-.17.05z" class="cls-4"/><path d="M307.99 260.15l-4.69 27.75-4.74-27.76 4.74.36 4.69-.35z" class="cls-7"/><path d="M307.99 260.15l-4.69.35-4.74-.36 4.74-26.2 4.69 26.21z" class="cls-5"/><path d="M303.3 233.94l-4.74 26.2-4.3-.32 9.04-25.88z" class="cls-4"/><path d="M303.3 287.9l-9.04-28.08 4.3.32 4.74 27.76z" class="cls-5"/><path d="M312.33 259.82l-4.34.33-4.69-26.21 9.03 25.88z" class="cls-4"/><path d="M312.33 259.82l-9.03 28.08 4.69-27.75 4.34-.33z" class="cls-5"/><path d="M416.76 521.1s1.19 1 1.19 4.09a20.16 20.16 0 0 1-.59 5.1 61.2 61.2 0 0 1-13.25-1.67c-5.75-1.6-12.16-2.55-12-4.3s16-3.86 16-3.86l5.24-1.89z" class="cls-9"/><path d="M428.59 516.38s1.14 1 1.14 3.91a19.06 19.06 0 0 1-.57 4.87 58.38 58.38 0 0 1-12.65-1.6c-5.5-1.53-11.62-2.44-11.49-4.11s15.31-3.69 15.31-3.69l5-1.81z" class="cls-9"/><path d="M410.13 481.23l.51 40.71s.61 1.26 3.21 1.46 3.67-.95 3.67-.95 1.62-17.88 1.76-23.71 2.42-15.64 2.42-15.64l-5.39-6.29zm11.87-3.69l.49 38.89s.58 1.21 3.06 1.39 3.51-.9 3.51-.9 1.55-17.08 1.68-22.65 2.31-14.94 2.31-14.94l-5.15-6z" class="cls-17"/><path d="M442.82 393.26s1.24 6.47-2.7 6.95-7.72-2.69-7.72-2.69l4.18-7.31z" class="cls-18"/><path d="M436.5 371.19s4.47 1.89 5.77 8.5a72.56 72.56 0 0 1 1.21 13.31 10.6 10.6 0 0 1-5.21.78l-3.13-.26z" class="cls-2"/><path d="M419.92 363.64a11.7 11.7 0 0 1 0 4.46c-.45 3-1 6-1 6l10.29-2.21a82 82 0 0 0 1.09-8.95v-2.45l-10.47-2.33z" class="cls-18"/><path d="M145.1 490.09a16.76 16.76 0 0 0-.67 4.74c.06 2.41 1.19 4.33 4.92 4.18s18.83-5.7 18.7-8-11.75-3.54-11.75-3.54l-9-.94z" class="cls-9"/><path d="M130.7 484.29a15.76 15.76 0 0 0-.64 4.52c.06 2.29 1.13 4.12 4.68 4s17.94-5.43 17.81-7.59-11.19-3.37-11.19-3.37l-8.56-.89z" class="cls-9"/><path d="M144.43 451.85v37.87a11.81 11.81 0 0 0 6.42 1.55c4-.07 5.34-1.4 5.34-1.4l1.89-39.27-5.6-2.85zm-14.37-3.98v36.07a11.21 11.21 0 0 0 6.11 1.47c3.84-.07 5.08-1.33 5.08-1.33l1.81-37.4-5.34-2.68z" fill="#003acc"/><path d="M160.15 340.88l.91-2.42 20.04 8.49-13.01 35.36-8.22-4.28.28-37.15z" class="cls-9"/><path d="M128.24 367.91s-1.54 6.66 2.54 7.32 8.08-5.05 8-5.17-3.25-5.23-3.37-5.35-7.17 3.2-7.17 3.2z" class="cls-17"/><path d="M137.36 342.45s-5.08 3.55-7.46 13.14-2.22 12.18-2.22 12.18a17.24 17.24 0 0 0 7 .35c3.65-.64 4.52-9 4.52-9z" class="cls-2"/><path d="M158.27 335.46a7.39 7.39 0 0 0-1 3.4 37.65 37.65 0 0 0 .29 6.45l-11.93-2.79s.62-7.17 1.3-9.1 9.91-3.85 9.91-3.85z" class="cls-18"/><path d="M165.75 329a53.39 53.39 0 0 1-.57 7.66 17.91 17.91 0 0 1-12.18-4.4c-5.87-5 2-14.91 2-14.91l8.57 1.15a15 15 0 0 1 1.3 3.26 23.38 23.38 0 0 1 .82 4.64c.04.88.06 1.77.06 2.6z" class="cls-17"/><path d="M167.8 448.67a38.34 38.34 0 0 1-12.53 3.46 103.46 103.46 0 0 1-15.57 0l-1.84-8.46-2.05 8.46a29.44 29.44 0 0 1-8-1.11 59.13 59.13 0 0 1-6.66-2.59s-.63-9.36 1.9-28.86 3.44-24.15 7.56-43.34a105.09 105.09 0 0 0 2.21-14c.55-6.72-.18-9.22 1.81-15.63 1.62-5.22 7.78-7.4 12-8.29a17.78 17.78 0 0 1 11.54 1.32 15.42 15.42 0 0 1 4.59 3.44 16.1 16.1 0 0 1 2.5 3.48c1.37 2.65 1.2 5 1 8.75-.09 1.42-.18 3-.19 4.94v2.72c0 .91-.07 2-.13 3.05-.49 11.4-1.81 23.95.18 44.54 2.18 24.14 1.68 38.12 1.68 38.12z" class="cls-15"/><path d="M170.53 367c-.84-.66-2.27-1.87-4.6-4 0 1-.07 2-.13 3.05-2.09-2.14-4.77-5-7.44-8.31-5.81-7.19-2.27-10-2.27-10l10.07 7.55 5.51 4.14c.15.14-.59 4.5-1.14 7.57z" class="cls-2"/><path d="M211.64 340.92c-.55 1.19-1.51 2.46-4.51 2.93s-21 21-24.5 24.9-9.77-2.08-9.77-2.08v-8.57l4.59.7s.72.44 1.48.88l.84.48c.68.38 1.84-1.05 4.08-3.48.91-1 2-2.13 3.3-3.39 4.51-4.36 11.17-8.88 14.5-11.34s2.62-3.32 4.84-6.08 7.85-7.39 8.32-7-1.5 2.38-3.17 5.23.56 5.63 0 6.82z" class="cls-17"/><path d="M183.85 356.68s-.13 4.4-4.13 5.49c-2.54.68-.79-2.49-.79-2.49l.84.48c.68.38 1.84-1.05 4.08-3.48z" class="cls-18"/><path d="M153.91 408.28a17.12 17.12 0 0 1-6.19-1.26 1 1 0 0 1-.48-1.26 1 1 0 0 1 1.26-.48 14.78 14.78 0 0 0 6.37 1.05 8.47 8.47 0 0 0 5-2.17 1 1 0 0 1 1.37 1.32 10.31 10.31 0 0 1-6.23 2.75c-.35.03-.73.05-1.1.05z" class="cls-2"/><path d="M165.75 329l-4.75-1.36-.67-3.69 4.52-2.2a23.38 23.38 0 0 1 .82 4.64c.06.89.08 1.78.08 2.61z" class="cls-15"/><path d="M160.68 326l-4.82 1.24-2.1 2.08s1.56-3.74 1.6-3.86 4.95-1.53 4.95-1.53z" class="cls-2"/><path d="M427.87 362.47c-5.74 2.52-13.71.75-13.71.75a21.25 21.25 0 0 1 .28-6.7 20 20 0 0 1 1.21-4.07c.44-1.06.87-2 1.28-2.8a19.85 19.85 0 0 1 3.1-4.82l7-2s5.67 5.55 5.53 5.71 1.04 11.46-4.69 13.93z" class="cls-17"/><path d="M407.11 399.28z" fill="none" stroke="#000" stroke-miterlimit="10" stroke-width=".5"/><path d="M418 383c-1 2.68-4.08 7.75-6.51 11.63-1.84 2.92-3.32 5.16-3.32 5.16a10.11 10.11 0 0 1-1.06-.5c-.38-.19-.86-.45-1.41-.79a25.24 25.24 0 0 1-2.85-2c-.41-.33-.84-.7-1.28-1.1a17.48 17.48 0 0 1-3.34-4 6 6 0 0 1-.66-1.55 87.39 87.39 0 0 1 8.18-11 18.35 18.35 0 0 1 2.41-2.42 10.39 10.39 0 0 1 3.54-2 5.29 5.29 0 0 1 6.52 3.65A7.43 7.43 0 0 1 418 383z" class="cls-15"/><path d="M407.11 399.28s-3.53 3.93-7.17 4.68a4.57 4.57 0 0 1-4.05-.93c-4.46-3.77 2.34-11.7 2.34-11.7a17.48 17.48 0 0 0 3.34 4c.44.4.87.77 1.28 1.1a23.39 23.39 0 0 0 4.26 2.85z" class="cls-17"/><path d="M443.61 478.22s-3.19 2.83-15.58 4.17l-.64-3.46-.94-5.13-2.63 7-.74 2-1 .05c-1 .06-1.89.08-2.78.08-15.26.05-20.65-6.58-20.65-6.58s9.05-54.26 8.82-68.87c0-1.7-.08-3.27-.14-4.75a2.81 2.81 0 0 1 0-.29 12.76 12.76 0 0 0 2.24.75s5.88-10.47 8.7-16.64 0-8.48 0-8.48a5.27 5.27 0 0 0-6.52-3.64 10.26 10.26 0 0 0-3.54 2c2.09-4.06 7.25-6.68 11.55-8.22a16.73 16.73 0 0 1 15.86 2.24 13.39 13.39 0 0 1 3.52 3.91c2.23 3.88 2.31 6.49 1.27 18a97.82 97.82 0 0 0 0 14.43c.59 9.75 2 21.12 3.22 32.3 1.83 17.33-.02 39.13-.02 39.13z" class="cls-15"/><path d="M407.29 402.74a21.81 21.81 0 0 1-7.35 1.22 13.2 13.2 0 0 0 5.31-2.91 21.41 21.41 0 0 0 1.86-1.77c.05 1 .11 2.06.16 3.17a2.71 2.71 0 0 0 .02.29z" class="cls-18"/><path d="M418.22 386.56c-2.82 6.17-8.7 16.64-8.7 16.64a13.81 13.81 0 0 1-2.24-.75c0-1.11-.11-2.17-.16-3.17a10.11 10.11 0 0 0 1.06.5s1.48-2.24 3.32-5.16c2.43-3.88 5.47-8.95 6.51-11.63a7.43 7.43 0 0 0 .21-4.91s2.78 2.31 0 8.48z" class="cls-2"/><path d="M423.82 480.82l-.74 2-1 .05c-1 .06-1.89.08-2.78.08-.04-.01 1.89-.81 4.52-2.13zm19.79-2.6s-3.19 2.83-15.58 4.17l-.64-3.46a42.21 42.21 0 0 0 7.75-5.4c5.48-5.1 5.56-28 4.17-40.35s1.08-26.45 1.08-26.45c.59 9.75 2 21.12 3.22 32.3 1.85 17.39 0 39.19 0 39.19z" class="cls-14"/><path d="M415.3 440h-.72a11.45 11.45 0 0 1-7.25-2.89 1 1 0 0 1 0-1.34 1 1 0 0 1 1.35 0 9.72 9.72 0 0 0 6 2.33 13.51 13.51 0 0 0 6.41-1.19 1 1 0 0 1 .91 1.67 15 15 0 0 1-6.7 1.42z" class="cls-2"/><path d="M163 308.47s3.69 6.71.51 10-6.11 4.38-6.5 6.07 0 1.75.72 2.76a5.24 5.24 0 0 1 .77 2.63s-2.46-3.91-3.83-2.47-1.4 4 .25 4.87c2.74 1.41-1.53 5.12-6.76 3.68-9.78-2.72-5.1-11.71-5.1-11.71s-3.59-9.8 6.15-12.95c7.89-2.56 8.45 2.36 10.76 1.64s3.03-4.52 3.03-4.52z" class="cls-21"/><path d="M421.56 350.2l-.72 3.66-6.4 2.66a20 20 0 0 1 1.21-4.07c.44-1.06.87-2 1.28-2.8z" class="cls-15"/><path d="M421.55 350.2l5.83.95.43 2.57-6.74-1.02.48-2.5z" class="cls-2"/><path d="M177.87 357.1a17.41 17.41 0 0 1-.42 1.7 20.17 20.17 0 0 1-1.72 4.24 15.67 15.67 0 0 1-2.87 3.63 13.42 13.42 0 0 1-1.28 1.1 9 9 0 0 1-1.05-.74c-.84-.66-2.27-1.87-4.6-4-1.09-1-2.36-2.22-3.87-3.67-3.66-3.57-5.34-6.51-6-8.82a4.41 4.41 0 0 1 0-2.72 4.55 4.55 0 0 1 6.16-2.76 23.34 23.34 0 0 1 2.92 1.56 42.36 42.36 0 0 1 3.54 2.43 78 78 0 0 1 9.19 8.05z" class="cls-15"/><path d="M141.54 433.42c-2.84 4-11.4 3.8-12.35 9.09s-1.43 8.51-1.43 8.51a59.13 59.13 0 0 1-6.66-2.59s-.63-9.36 1.9-28.86 3.44-24.15 7.56-43.34a105.09 105.09 0 0 0 2.21-14s3.37 8.38 0 23.7-6.26 24.1-4.82 36 16.43 7.47 13.59 11.49z" class="cls-14"/><path d="M420 344.81s5.46.26 7 4.13-3.49 13.77 3.81 14.71 11.4-13 9.59-17.34c-2.47-5.88-5.5-7.52-12.31-7.28a8.92 8.92 0 0 0-8.09 5.78z" class="cls-21"/><path fill="#00592e" d="M437.47 347.36s6.85-1.1 8 3.27c.88 3.35-1.37 5.59-1.39 7.79a4.88 4.88 0 0 0 1.82 3.58 5.56 5.56 0 0 1-5-4.3c-1-4.12.71-5.63-.65-6.26a2.77 2.77 0 0 0-2.81.54 4.24 4.24 0 0 1-.49-2.26 5.46 5.46 0 0 1 .52-2.36z"/></svg>