<svg id="Layer_1" data-name="Layer 1" xmlns="http://www.w3.org/2000/svg" xmlns:xlink="http://www.w3.org/1999/xlink" viewBox="0 0 122.66 115.77"><defs><style>.cls-1{fill:url(#linear-gradient)}.cls-3{fill:#f8ed46}.cls-4{fill:#4365af}.cls-9{fill:#f79752}.cls-16{fill:#23286d}.cls-22{fill:#e76ca9}</style><linearGradient id="linear-gradient" x1="105.64" y1="24.68" x2="-11.27" y2="170.91" gradientUnits="userSpaceOnUse"><stop offset="0" stop-color="#f59cab"/><stop offset=".25" stop-color="#b882a8"/><stop offset=".48" stop-color="#876da6"/><stop offset=".68" stop-color="#645ea4"/><stop offset=".84" stop-color="#4f55a3"/><stop offset=".95" stop-color="#4752a3"/><stop offset=".96" stop-color="#6d7cbb"/><stop offset=".96" stop-color="#94a7d3"/><stop offset=".97" stop-color="#b0c6e5"/><stop offset=".97" stop-color="#c2d9f0"/><stop offset=".98" stop-color="#c8e0f4"/></linearGradient><clipPath id="clip-path" transform="translate(-5.93 -19.11)"><circle class="cls-1" cx="63.81" cy="76.99" r="57.88"/></clipPath><linearGradient id="linear-gradient-3" x1="48.84" y1="42.65" x2="58.25" y2="42.65" gradientUnits="userSpaceOnUse"><stop offset="0" stop-color="#f7ed49"/><stop offset=".02" stop-color="#f8ec5e"/><stop offset=".06" stop-color="#faea7d"/><stop offset=".1" stop-color="#fbe899"/><stop offset=".15" stop-color="#fce7af"/><stop offset=".21" stop-color="#fde6c0"/><stop offset=".28" stop-color="#fee5cb"/><stop offset=".38" stop-color="#fee5d2"/><stop offset=".66" stop-color="#fee5d4"/><stop offset="1" stop-color="#fee5d4"/></linearGradient><linearGradient id="linear-gradient-4" x1="52.81" y1="39.47" x2="60.19" y2="39.47" xlink:href="#linear-gradient-3"/><linearGradient id="linear-gradient-5" x1="54.71" y1="42.47" x2="60.56" y2="42.47" gradientUnits="userSpaceOnUse"><stop offset=".14" stop-color="#978a82"/><stop offset=".15" stop-color="#9a8c84"/><stop offset=".42" stop-color="#c5b2a6"/><stop offset=".66" stop-color="#e4cebf"/><stop offset=".86" stop-color="#f7dfcf"/><stop offset="1" stop-color="#fee5d4"/></linearGradient><linearGradient id="linear-gradient-6" x1="65.99" y1="57.09" x2="71.64" y2="74.45" gradientUnits="userSpaceOnUse"><stop offset=".22" stop-color="#0d92a0"/><stop offset="1" stop-color="#67c7bf"/></linearGradient><linearGradient id="linear-gradient-7" x1="62.33" y1="37.24" x2="65.51" y2="37.24" gradientUnits="userSpaceOnUse"><stop offset="0" stop-color="#6a64ac"/><stop offset=".64" stop-color="#6a64ac"/></linearGradient><linearGradient id="linear-gradient-8" x1="61.33" y1="64.61" x2="68.87" y2="64.61" gradientUnits="userSpaceOnUse"><stop offset=".22" stop-color="#11b2c2"/><stop offset="1" stop-color="#67c7bf"/></linearGradient><linearGradient id="linear-gradient-9" x1="58.84" y1="51.82" x2="71.79" y2="41.92" gradientUnits="userSpaceOnUse"><stop offset=".11" stop-color="#3f386a"/><stop offset=".26" stop-color="#423a6b"/><stop offset=".38" stop-color="#4b3f6e"/><stop offset=".47" stop-color="#5b4774"/><stop offset=".56" stop-color="#71547c"/><stop offset=".65" stop-color="#8e6486"/><stop offset=".73" stop-color="#b27793"/><stop offset=".81" stop-color="#db8ea2"/><stop offset=".85" stop-color="#f59cab"/></linearGradient><linearGradient id="linear-gradient-10" x1="56.87" y1="46.82" x2="58.28" y2="46.82" xlink:href="#linear-gradient-7"/><linearGradient id="linear-gradient-11" x1="54.74" y1="42.03" x2="57.99" y2="35.8" gradientUnits="userSpaceOnUse"><stop offset="0" stop-color="#d89b40"/><stop offset=".06" stop-color="#d89b40" stop-opacity=".91"/><stop offset=".18" stop-color="#d89b40" stop-opacity=".67"/><stop offset=".36" stop-color="#d89b40" stop-opacity=".28"/><stop offset=".48" stop-color="#d89b40" stop-opacity="0"/></linearGradient><linearGradient id="linear-gradient-12" x1="14.9" y1="101.81" x2="72.01" y2="69.82" gradientUnits="userSpaceOnUse"><stop offset="0" stop-color="#2b2c6c" stop-opacity="0"/><stop offset=".17" stop-color="#2b2c6c" stop-opacity=".02"/><stop offset=".27" stop-color="#2b2c6c" stop-opacity=".1"/><stop offset=".34" stop-color="#2b2c6c" stop-opacity=".22"/><stop offset=".4" stop-color="#2b2c6c" stop-opacity=".4"/><stop offset=".46" stop-color="#2b2c6c" stop-opacity=".64"/><stop offset=".52" stop-color="#2b2c6c" stop-opacity=".92"/><stop offset=".53" stop-color="#2b2c6c"/><stop offset=".6" stop-color="#292966"/><stop offset=".71" stop-color="#222254"/><stop offset=".82" stop-color="#161738"/><stop offset=".95" stop-color="#060710"/><stop offset="1"/></linearGradient></defs><circle class="cls-1" cx="57.88" cy="57.88" r="57.88"/><g clip-path="url(#clip-path)"><path class="cls-3" d="M104.04 41.09l-.3 18.07h.79l1.16-17.31h-.89l-.76-.76zM87.16 23.79l-.3 18.06h.79l1.16-17.3h-.89l-.76-.76z"/><path class="cls-4" d="M90.99 35.89v13.33h.26l.23-12.89-.49-.44zM99 36.24v12.98h.26l.23-12.89-.49-.09zM94.37 38.9v11.84h.42l.24-11.47h-.24l-.42-.37zM103.15 39l-.32 11.26h-.25l-.19-11.24.76-.02z"/><path fill="#77c699" d="M94.79 39.27l8.36-.27-3.79-3.11h-8.37l3.8 3.38z"/><path class="cls-3" d="M104.99 22.31H86.4v1.01l18.4 18.53h17.86v-1.52l-17.67-18.02z"/><path fill="#b599c8" d="M94.89 28.07l5.46 5.46 5.93-.42-5.28-5.28-6.11.24z"/><path fill="#6a63ac" d="M101 27.83l3-5.58 5.33 5.43-3.05 5.43-5.28-5.28z"/><path fill="#30b37b" d="M94.79 39.27V23.2l-3.8-3.43v16.12l3.8 3.38z"/></g><path class="cls-9" d="M55.02 21.4h-1.35l-.91.66 1.87.65.39-1.31z"/><path d="M48.84 42.45s1.91-3.19 4.24-2.57l5.17 2.74A4.93 4.93 0 0 0 55 45.51z" transform="translate(-5.93 -19.11)" fill="url(#linear-gradient-3)"/><path d="M53.08 39.88a1.64 1.64 0 0 1-.17-1.46 13.82 13.82 0 0 1 1.49-2.1l5.79 2.58a3.73 3.73 0 0 0-1.94 3.72z" transform="translate(-5.93 -19.11)" fill="url(#linear-gradient-4)"/><path d="M54.71 45.61S56 42.74 58 42.47c0 0-.09-3 2.15-3.6l.43.7a5.5 5.5 0 0 0-2.05 3.27s-2.26 1.45-2.77 3.22z" transform="translate(-5.93 -19.11)" fill="url(#linear-gradient-5)"/><path d="M69.61 53.55a34.77 34.77 0 0 1-1.47 9.24l-.24 11.27-1.06.3-1.92-14.24.59-7.06z" transform="translate(-5.93 -19.11)" fill="url(#linear-gradient-6)"/><path class="cls-9" d="M50.26 12.27l1.23 3.8.67-.25.62 1.49 2.36-1.13L57.09 19l2.11-1.28-2.88-2.88-.41-1.18-.82-1.39-2.07-.72-2.76.72z"/><path class="cls-4" d="M56.29 32.65s-.48-1.52-.31-1.75a21.11 21.11 0 0 1 3.89-1.67c.34 0 .53.12.79.6l1.87 4.23-.32.24-.56-.71a1 1 0 0 0-.12-.92c-.27-.48-.61-.07-.49.53l.1.41-.27.14a1.5 1.5 0 0 0-1.63-.81l-.93-1.11s-.2-.16-.63.05-1.13.91-1.39.77z" transform="translate(-5.93 -19.11)"/><path d="M62.33 38.63l2.16-2.78a8.83 8.83 0 0 1 1 1.11z" transform="translate(-5.93 -19.11)" fill="url(#linear-gradient-7)"/><path class="cls-9" d="M57.46 45.52L53.13 44v-.85c0-.25-.38.1-.45.73l-2.19-1.21s-.11.15.39.6c0 0-.7-.5-.84-.4s.31.6.31.6-.51-.22-.51-.12a6.58 6.58 0 0 0 1.71 1.18c.27 0 1.15.07 1.28.23s4.25 2.49 4.25 2.49l.5-1.31z" transform="translate(-5.93 -19.11)"/><path d="M61.33 54.36s.27 9.28.24 9.83 1.54 11.48 1.54 11.48h1.23l.51-13.43s3-5.31 3.26-5.75a7.16 7.16 0 0 0 .75-2.94H61.5z" transform="translate(-5.93 -19.11)" fill="url(#linear-gradient-8)"/><path class="cls-16" d="M57.18 56.55l-3.41 1.15h4.64v-1.15h-1.23zM60.91 55.25l-2.23.93 3.53-.1-.24-1.13-1.06.3z"/><path d="M69.27 46.21c-.61-6.54-4-9.54-4-9.54L63 38.11a4.73 4.73 0 0 0-.38.31A8 8 0 0 0 61 40.51c-.36.54-.7 1.12-1 1.69a30.94 30.94 0 0 0-1.7 3.41l-.3 2.83s.39.56.59.46.91-.87 1.93-1.9l.48 7.36s8.84 0 9.35-.81-.46-.8-1.08-7.34z" transform="translate(-5.93 -19.11)" fill="url(#linear-gradient-9)"/><path d="M58.28 45.52l-.61-.32a1 1 0 0 0-.3.63c-.09.48-.5 2.38-.5 2.38l1.14.23.23-2.76z" transform="translate(-5.93 -19.11)" fill="url(#linear-gradient-10)"/><path d="M58 42.47l-4.9-2.59a1.64 1.64 0 0 1 .05-1.88l1.25-1.64 5.73 2.55s-1.97.24-2.13 3.56z" transform="translate(-5.93 -19.11)" fill="url(#linear-gradient-11)"/><path d="M63.81 76.24l-12.18 5.2a10.44 10.44 0 0 0-5.58 1c-2.67 1.39-10.92 4.82-10.92 4.82s.25 1.9-2.28 3.17-3.56 2-3.69 3.81l39-19.07H66.4z" transform="translate(-5.93 -19.11)" fill="url(#linear-gradient-12)"/><path fill="none" stroke="#f8ed46" stroke-miterlimit="10" stroke-width="1.69" d="M60.45 57.7l19.01 44.99"/><path class="cls-3" d="M82.94 120.44c.2.12 2.35 1.07 2.35 1.07l.5-2.44L87 125z" transform="translate(-5.93 -19.11)"/><circle class="cls-22" cx="4.06" cy="57.66" r="1.08"/><circle class="cls-22" cx="57.88" cy="111.08" r="1.08"/></svg>