<svg id="Layer_1" data-name="Layer 1" xmlns="http://www.w3.org/2000/svg" xmlns:xlink="http://www.w3.org/1999/xlink" viewBox="0 0 749.6 533.68"><defs><style>.cls-1{fill:url(#linear-gradient)}.cls-10,.cls-2,.cls-48,.cls-50,.cls-77{fill:none;stroke-miterlimit:10}.cls-2{stroke-width:1.01px;stroke:url(#linear-gradient-2)}.cls-9{fill:#f79752}.cls-10,.cls-77{stroke:#465fac}.cls-10{stroke-width:.51px}.cls-11{fill:#b8ac32}.cls-30{fill:#b599c8}.cls-35{fill:#fff}.cls-40{fill:#2b4937}.cls-48,.cls-50{stroke:#fff}.cls-48{stroke-width:.78px;stroke-dasharray:3.06 3.06}.cls-50{stroke-width:.75px}.cls-54{fill:#465fac}.cls-60{fill:#f8ed46}.cls-62{fill:#2b2a20}.cls-63{fill:#4b4d60}.cls-77{stroke-width:.37px}.cls-78{fill:#d6ecdf}.cls-79{fill:#c6b6ab}</style><linearGradient id="linear-gradient" x1="511.23" y1="25.54" x2="170.86" y2="370.57" gradientUnits="userSpaceOnUse"><stop offset="0" stop-color="#f7ed49"/><stop offset=".09" stop-color="#f8eb64"/><stop offset=".28" stop-color="#fbe994"/><stop offset=".44" stop-color="#fde7b7"/><stop offset=".58" stop-color="#fee5cc"/><stop offset=".66" stop-color="#fee5d4"/><stop offset="1" stop-color="#fee5d4"/></linearGradient><linearGradient id="linear-gradient-2" x1="86.38" y1="131.9" x2="130.37" y2="131.9" gradientTransform="rotate(.62 67.785 913.611)" gradientUnits="userSpaceOnUse"><stop offset="0" stop-color="#6a64ac"/><stop offset=".08" stop-color="#7167ac"/><stop offset=".19" stop-color="#836eac"/><stop offset=".32" stop-color="#a17aac"/><stop offset=".46" stop-color="#cb8bab"/><stop offset=".58" stop-color="#f59cab"/><stop offset="1" stop-color="#e7a276"/></linearGradient><linearGradient id="linear-gradient-3" x1="90.41" y1="391.36" x2="224.09" y2="416.2" gradientUnits="userSpaceOnUse"><stop offset="0" stop-color="#303836"/><stop offset=".08" stop-color="#303836"/><stop offset=".14" stop-color="#3e4544" stop-opacity=".93"/><stop offset=".7" stop-color="#cacccb" stop-opacity=".26"/><stop offset="1" stop-color="#fff" stop-opacity="0"/></linearGradient><linearGradient id="linear-gradient-4" x1="631.1" y1="363.39" x2="709.44" y2="460.39" gradientUnits="userSpaceOnUse"><stop offset="0" stop-color="#6f7d78"/><stop offset=".06" stop-color="#7d8a85" stop-opacity=".9"/><stop offset=".26" stop-color="#acb4b1" stop-opacity=".58"/><stop offset=".46" stop-color="#d0d5d3" stop-opacity=".33"/><stop offset=".65" stop-color="#eaeceb" stop-opacity=".15"/><stop offset=".84" stop-color="#fafafa" stop-opacity=".04"/><stop offset="1" stop-color="#fff" stop-opacity="0"/></linearGradient><linearGradient id="linear-gradient-5" x1="88.49" y1="427.01" x2="166.26" y2="540.34" xlink:href="#linear-gradient-4"/><clipPath id="clip-path"><path class="cls-1" d="M522.8 364.56a258.46 258.46 0 0 0 14.45-85.44c0-142.9-115.84-258.74-258.73-258.74S19.78 136.22 19.78 279.12a258.21 258.21 0 0 0 14.46 85.44z"/></clipPath><linearGradient id="linear-gradient-7" x1="45.9" y1="186.03" x2="503.04" y2="468.43" gradientUnits="userSpaceOnUse"><stop offset="0" stop-color="#6a64ac"/><stop offset=".1" stop-color="#7167ac"/><stop offset=".23" stop-color="#836eac"/><stop offset=".39" stop-color="#a17aac"/><stop offset=".57" stop-color="#cb8bab"/><stop offset=".72" stop-color="#f59cab"/><stop offset="1" stop-color="#e7a276"/></linearGradient><linearGradient id="linear-gradient-8" x1="359.71" y1="300.14" x2="562.59" y2="300.14" gradientUnits="userSpaceOnUse"><stop offset="0" stop-color="#f1ef97"/><stop offset=".77" stop-color="#77c79a"/></linearGradient><linearGradient id="linear-gradient-9" x1="146.02" y1="420.4" x2="108.47" y2="197.42" gradientUnits="userSpaceOnUse"><stop offset="0" stop-color="#f59cab"/><stop offset=".25" stop-color="#e4b18a"/><stop offset=".56" stop-color="#d2c767"/><stop offset=".81" stop-color="#c7d452"/><stop offset=".98" stop-color="#c3d94a"/></linearGradient><linearGradient id="linear-gradient-10" x1="63.6" y1="220.92" x2="184.91" y2="95.7" xlink:href="#linear-gradient-2"/><clipPath id="clip-path-2"><path class="cls-2" d="M102.73 197.94S92 168.69 96 142.41c5.84-38.89 30.1-52.54 42.37-73.63a540.85 540.85 0 0 1-22.06 71.55c-11.19 28.72-4.34 58.29-4.34 58.29h-4.92z"/></clipPath><linearGradient id="linear-gradient-11" x1="97.16" y1="135.27" x2="129.08" y2="135.27" xlink:href="#linear-gradient-2"/><linearGradient id="linear-gradient-12" x1="91.84" y1="134.09" x2="130.17" y2="134.09" xlink:href="#linear-gradient-2"/><linearGradient id="linear-gradient-14" x1="374.23" y1="246.56" x2="356.82" y2="231.29" gradientTransform="matrix(-1 0 0 1 497.4 0)" gradientUnits="userSpaceOnUse"><stop offset=".42" stop-color="#f79752"/><stop offset=".51" stop-color="#f9a970"/><stop offset=".64" stop-color="#fbc39b"/><stop offset=".77" stop-color="#fdd5ba"/><stop offset=".87" stop-color="#fee1cd"/><stop offset=".95" stop-color="#fee5d4"/></linearGradient><linearGradient id="linear-gradient-15" x1="356.33" y1="233.32" x2="373.83" y2="233.32" gradientTransform="matrix(-1 0 0 1 497.4 0)" gradientUnits="userSpaceOnUse"><stop offset="0" stop-color="#9f6132"/><stop offset=".1" stop-color="#b26d39"/><stop offset=".29" stop-color="#d07f44"/><stop offset=".48" stop-color="#e68c4c"/><stop offset=".66" stop-color="#f39450"/><stop offset=".83" stop-color="#f79752"/><stop offset="1" stop-color="#f79752"/></linearGradient><linearGradient id="linear-gradient-16" x1="341.73" y1="193.55" x2="382.43" y2="239.97" gradientTransform="matrix(-1 0 0 1 497.4 0)" gradientUnits="userSpaceOnUse"><stop offset="0" stop-color="#77c79a"/><stop offset="1" stop-color="#2b2c6c"/></linearGradient><linearGradient id="linear-gradient-17" x1="336.44" y1="198.18" x2="377.15" y2="244.6" xlink:href="#linear-gradient-16"/><linearGradient id="linear-gradient-18" x1="343.36" y1="192.11" x2="384.07" y2="238.53" xlink:href="#linear-gradient-16"/><linearGradient id="linear-gradient-19" x1="339.42" y1="195.57" x2="380.13" y2="241.99" xlink:href="#linear-gradient-16"/><linearGradient id="linear-gradient-20" x1="345.6" y1="190.15" x2="386.3" y2="236.57" xlink:href="#linear-gradient-16"/><linearGradient id="linear-gradient-21" x1="341.86" y1="193.43" x2="382.57" y2="239.85" xlink:href="#linear-gradient-16"/><linearGradient id="linear-gradient-22" x1="346.38" y1="189.46" x2="387.09" y2="235.88" xlink:href="#linear-gradient-16"/><linearGradient id="linear-gradient-23" x1="342.44" y1="192.92" x2="383.15" y2="239.34" xlink:href="#linear-gradient-16"/><linearGradient id="linear-gradient-24" x1="344.09" y1="191.48" x2="384.79" y2="237.9" xlink:href="#linear-gradient-16"/><linearGradient id="linear-gradient-25" x1="323.52" y1="230.75" x2="325.6" y2="222.25" gradientUnits="userSpaceOnUse"><stop offset="0" stop-color="#200"/><stop offset=".08" stop-color="#3c1414"/><stop offset=".19" stop-color="#5a2c2b"/><stop offset=".31" stop-color="#703d3c"/><stop offset=".41" stop-color="#7d4746"/><stop offset=".51" stop-color="#814a49"/></linearGradient><linearGradient id="linear-gradient-26" x1="211.71" y1="144.97" x2="334.46" y2="144.97" xlink:href="#linear-gradient-2"/><linearGradient id="linear-gradient-27" x1="311.97" y1="235.4" x2="185.97" y2="236.4" gradientUnits="userSpaceOnUse"><stop offset="0" stop-color="#4760ac"/><stop offset=".49" stop-color="#273469"/></linearGradient><linearGradient id="linear-gradient-28" x1="221.6" y1="221.64" x2="189.04" y2="193.09" xlink:href="#linear-gradient-14"/><linearGradient id="linear-gradient-29" x1="188.14" y1="196.88" x2="220.86" y2="196.88" gradientTransform="matrix(-1 0 0 1 497.4 0)" xlink:href="#linear-gradient-25"/><linearGradient id="linear-gradient-30" x1="332.34" y1="184.87" x2="352.06" y2="184.87" gradientTransform="matrix(-1 0 0 1 687.63 0)" xlink:href="#linear-gradient-15"/><linearGradient id="linear-gradient-31" x1="355.65" y1="243.91" x2="316.81" y2="189.72" gradientTransform="matrix(-1 0 0 1 687.63 0)" gradientUnits="userSpaceOnUse"><stop offset="0" stop-color="#6a64ac"/><stop offset=".31" stop-color="#6a64ac"/><stop offset=".41" stop-color="#7f7aa7"/><stop offset=".69" stop-color="#bcb89a"/><stop offset=".89" stop-color="#e2df91"/><stop offset="1" stop-color="#f0ee8e"/></linearGradient><linearGradient id="linear-gradient-32" x1="353.27" y1="296.42" x2="356.95" y2="296.42" xlink:href="#linear-gradient-27"/><linearGradient id="linear-gradient-33" x1="347.06" y1="289.18" x2="349.44" y2="289.18" xlink:href="#linear-gradient-27"/><linearGradient id="linear-gradient-34" x1="354.45" y1="228.26" x2="360.52" y2="228.26" gradientTransform="matrix(-1 0 0 1 687.63 0)" xlink:href="#linear-gradient-15"/><linearGradient id="linear-gradient-35" x1="322.36" y1="233.66" x2="324.36" y2="233.66" gradientTransform="matrix(-1 0 0 1 687.63 0)" xlink:href="#linear-gradient-15"/><clipPath id="clip-path-3"><path d="M522.8 364.56a258.46 258.46 0 0 0 14.45-85.44c0-142.9-115.84-258.74-258.73-258.74S19.78 136.22 19.78 279.12a258.21 258.21 0 0 0 14.46 85.44z" fill="none"/></clipPath><linearGradient id="linear-gradient-36" x1="458.42" y1="334.14" x2="565.76" y2="334.14" xlink:href="#linear-gradient-14"/><linearGradient id="linear-gradient-37" x1="499.46" y1="318.32" x2="586.31" y2="318.32" gradientUnits="userSpaceOnUse"><stop offset="0" stop-color="#f7ed49"/><stop offset=".13" stop-color="#f8eb64"/><stop offset=".4" stop-color="#fbe994"/><stop offset=".63" stop-color="#fde7b7"/><stop offset=".83" stop-color="#fee5cc"/><stop offset=".95" stop-color="#fee5d4"/></linearGradient><linearGradient id="linear-gradient-38" x1="628.54" y1="170.66" x2="517.55" y2="461.64" xlink:href="#linear-gradient-8"/><linearGradient id="linear-gradient-39" x1="510.28" y1="244.96" x2="534.1" y2="244.96" gradientTransform="rotate(4.16 -125.25 1087.095)" xlink:href="#linear-gradient-15"/><linearGradient id="linear-gradient-40" x1="543.48" y1="253.34" x2="556.04" y2="253.34" gradientTransform="rotate(4.16 -125.25 1087.095)" xlink:href="#linear-gradient-37"/><linearGradient id="linear-gradient-41" x1="531.27" y1="244.99" x2="607.93" y2="244.99" gradientTransform="rotate(4.16 -125.25 1087.095)" xlink:href="#linear-gradient-37"/><linearGradient id="linear-gradient-42" x1="532.74" y1="264.29" x2="540.11" y2="264.29" gradientTransform="rotate(4.16 -125.25 1087.095)" xlink:href="#linear-gradient-15"/><linearGradient id="linear-gradient-43" x1="553.94" y1="261.68" x2="527.75" y2="257.02" gradientTransform="rotate(4.16 -125.25 1087.095)" xlink:href="#linear-gradient-15"/><linearGradient id="linear-gradient-44" x1="79.19" y1="409.04" x2="88.73" y2="409.04" xlink:href="#linear-gradient-9"/><linearGradient id="linear-gradient-45" x1="92.49" y1="416.16" x2="94.69" y2="416.16" xlink:href="#linear-gradient-9"/><linearGradient id="linear-gradient-46" x1="62.85" y1="417.97" x2="75.38" y2="417.97" xlink:href="#linear-gradient-8"/><linearGradient id="linear-gradient-47" x1="178.19" y1="383.77" x2="152.82" y2="394.68" gradientUnits="userSpaceOnUse"><stop offset=".41" stop-color="#f7ed49"/><stop offset=".87" stop-color="#b5b038"/></linearGradient><linearGradient id="linear-gradient-48" x1="94.85" y1="380.95" x2="97.43" y2="380.95" xlink:href="#linear-gradient-27"/><linearGradient id="linear-gradient-49" x1="82.29" y1="369.96" x2="190.91" y2="278.99" gradientUnits="userSpaceOnUse"><stop offset="0" stop-color="#6a64ac"/><stop offset=".07" stop-color="#7167ac"/><stop offset=".18" stop-color="#836eac"/><stop offset=".3" stop-color="#a17aac"/><stop offset=".43" stop-color="#cb8bab"/><stop offset=".55" stop-color="#f59cab"/><stop offset=".67" stop-color="#f49da7"/><stop offset=".8" stop-color="#f09e99"/><stop offset=".93" stop-color="#eba084"/><stop offset="1" stop-color="#e7a276"/></linearGradient><linearGradient id="linear-gradient-50" x1="182.6" y1="378.67" x2="115.99" y2="265.79" xlink:href="#linear-gradient-2"/><linearGradient id="linear-gradient-51" x1="108.87" y1="300.67" x2="130.51" y2="300.67" gradientUnits="userSpaceOnUse"><stop offset="0" stop-color="#fee5d4"/><stop offset=".22" stop-color="#e3cabd"/><stop offset=".69" stop-color="#a08682"/><stop offset=".97" stop-color="#765c5d"/></linearGradient><linearGradient id="linear-gradient-52" x1="89.33" y1="370.13" x2="95.56" y2="370.13" gradientUnits="userSpaceOnUse"><stop offset="0" stop-color="#fee5d4"/><stop offset=".82" stop-color="#fbcac6"/><stop offset=".97" stop-color="#fac5c3"/></linearGradient><linearGradient id="linear-gradient-53" x1="91.35" y1="373.85" x2="96.57" y2="373.85" xlink:href="#linear-gradient-27"/><linearGradient id="linear-gradient-54" x1="127.33" y1="341.02" x2="143.09" y2="341.02" xlink:href="#linear-gradient-52"/><linearGradient id="linear-gradient-55" x1="88.06" y1="291.89" x2="141.05" y2="321.52" gradientUnits="userSpaceOnUse"><stop offset=".02" stop-color="#0098d7"/><stop offset=".28" stop-color="#465fab"/><stop offset=".49" stop-color="#273469"/><stop offset=".52" stop-color="#273469"/></linearGradient><linearGradient id="linear-gradient-56" x1="104.43" y1="343.02" x2="137.56" y2="408.67" xlink:href="#linear-gradient-47"/><linearGradient id="linear-gradient-57" x1="177.79" y1="406.16" x2="138.95" y2="408.49" xlink:href="#linear-gradient-47"/></defs><ellipse cx="160.83" cy="404.44" rx="57.36" ry="19.86" fill="url(#linear-gradient-3)"/><path fill="url(#linear-gradient-4)" d="M631.85 388l32.94 21.67-12-23.37 11.12 1.81L713.52 414l26 42.67-81.09-8-32.78-57.69 6.2-2.98z"/><path fill="url(#linear-gradient-5)" d="M78.58 476.75l12.77 3.92 70.23-11.33-49.25-41.13-9.99-2.52-23.76 51.06z"/><path class="cls-1" d="M522.8 364.56a258.46 258.46 0 0 0 14.45-85.44c0-142.9-115.84-258.74-258.73-258.74S19.78 136.22 19.78 279.12a258.21 258.21 0 0 0 14.46 85.44z"/><g clip-path="url(#clip-path)"><path d="M179.56 240.94h80s40.18-.27 18.67 16.48 18.78 14 28.72 17.31 81.87 3 38.24 45.15 36.37 9 70.37 24.25c0 0 12.37-.2 20.52 21.17H191.39z" fill="url(#linear-gradient-7)"/><path class="cls-9" d="M371.19 171.42s-1.24-3.49 6.22-2.59 26.26 8.29 21.48 10.94-27.34-5.52-27.7-8.35zM387.31 201.46s-2.32 4.16 1.73 6.25 17 9 17 4.51-16.19-14.12-18.73-10.76z"/><path class="cls-10" d="M445.69 238.76s7.42-43.16-49.34-60.74"/><path class="cls-9" d="M383.08 127.42s7.72 22.22 27.77 43.81 27.78 65.41 25.53 83.3l1.35-3.4 3.08-7.17s-.35-49-26.26-73.66-25.91-33.93-31.47-44.73z"/><path class="cls-10" d="M403.14 211.33s31 19.33 33.42 45.71M430.82 176.47s10.64 50.17 7.51 76.4"/><path class="cls-9" d="M429.55 159s-.58-3.59-3.12-2.78-.23 19.4 4.39 21.79c2.89.78-1.27-19.01-1.27-19.01z"/><path class="cls-11" d="M458.06 239.42s38.87-60.62 54-72.35L490.75 212s-21 37.73-37.53 49.36c0-.05 4.55-20.7 4.84-21.94z"/><path class="cls-11" d="M448.48 149.94s25.3 29.93 26.53 38.87.57 25.39.57 25.39l-8.47 11.4s-.91-25.06-5-32.47-11.47-32.08-13.63-43.19z"/><path class="cls-11" d="M440.15 285.7s-10.48-24.39 1.55-43.21 24-49.36 24-49.36-9.22 70.07-20.62 92.57zM482.63 203s-9.9-25.27-4.71-49.34c0 0 14.65 29.11 11.86 39.45zM465.7 244.79s26.9-26.15 42.45-29.2 42.34-1.88 42.34-1.88l-40.61 14.46z"/><path d="M580.68 264s14.57-19.89-37.8-28.14c-35.27-5.56-33.23 18.86-49.66 17.73-15.78-1.09-23.57 2.14-28.93 16.07-3.57 8.92-12.85 4.64-20.35 5.71s-17.5 6.78-15.71 18.57-2.5 17.67-12.85 23.47-36.07 19-35.71 47.94h176.84z" fill="url(#linear-gradient-8)"/><path d="M-13.81 180.29s121.36-46.29 140 30c0 0 11.66-28 42.75-27.78s45.84 51.94 13.57 86.84c0 0 34.51-18.11 56.27 15.66s-13 59.07-34.74 59.27c0 0 31.9-2.15 47.12 20.89l-227-.87z" fill="url(#linear-gradient-9)"/><path d="M107.05 198.62s-8.18-78.15 55.48-92.81 56.16-59.37 56.16-59.37 11.4 48.16-46 69.7-59.31 82.48-59.31 82.48z" fill="url(#linear-gradient-10)"/><g clip-path="url(#clip-path-2)" stroke-width="1.01" stroke-miterlimit="10" fill="none"><path d="M106.14 197.23s-3.73-53.81 9.23-80.64C128 90.41 136 78.42 136 78.42s-13.13 33.82-19.45 49.14c-9.84 23.93-10.41 69.67-10.41 69.67z" stroke="url(#linear-gradient-11)"/><path d="M137.05 74.39s-32.7 30.93-35.58 64a248.62 248.62 0 0 0 1.8 59.17s-2.12-53 3.64-71.75 23.72-40.5 30.14-51.42z" stroke="url(#linear-gradient-12)"/></g><path class="cls-2" d="M102.73 197.94S92 168.69 96 142.41c5.84-38.89 30.1-52.54 42.37-73.63a540.85 540.85 0 0 1-22.06 71.55c-11.19 28.72-4.34 58.29-4.34 58.29h-4.92z"/><path d="M141.07 233.32l-3.75 13.73s-2.65.61-10.71 0l-3-13.73z" fill="url(#linear-gradient-14)"/><ellipse cx="132.32" cy="233.32" rx="8.75" ry="1.25" fill="url(#linear-gradient-15)"/><path d="M131.44 229.06s-4.89-7.33-7.87-7.35 7.87 8.29 7.87 8.29z" fill="url(#linear-gradient-16)"/><path d="M131.91 227.12s7.7-5.62 10.18-4.22-10.18 5.1-10.18 5.1z" fill="url(#linear-gradient-17)"/><path d="M132.51 223s-3.23-7.7-5.26-7.37 5.07 8.38 5.07 8.38z" fill="url(#linear-gradient-18)"/><path d="M133.37 219.85s6.92-4.8 9-4.19c3.71 1.08-9.19 4.72-9.19 4.72z" fill="url(#linear-gradient-19)"/><path d="M135 215.17s-1.84-7.53-3.58-7.89 3.22 8.77 3.22 8.77z" fill="url(#linear-gradient-20)"/><path d="M136.66 211.66s6.7-3.66 7.86-2.77-8.56 4.16-8.56 4.16z" fill="url(#linear-gradient-21)"/><path d="M138.93 207.9s.69-7.64-1.24-7.79.68 8.63.68 8.63z" fill="url(#linear-gradient-22)"/><path d="M141.31 204.81s7.14-2 6.69-.38-7.33 1.15-7.33 1.15z" fill="url(#linear-gradient-23)"/><path d="M143.54 201.94s5.4-7.71 7.39-7.75-6.06 7.85-8 8.86z" fill="url(#linear-gradient-24)"/><path d="M131.26 234s-.55-20 12.87-32.05" stroke-width=".54" stroke="#465fac" stroke-miterlimit="10" fill="none"/><path class="cls-30" d="M101.39 198.07s1.79 8.57-2.85 14.46-3.07 22.78-2.71 34.47c0 0 7.5 1.24 23.24-.38V217c0-4.82-4.82-6.07-5.36-12s0-7 0-7z"/><ellipse class="cls-30" cx="107.55" cy="197.98" rx="6.16" ry="1.34"/><path class="cls-11" d="M80.61 245.99h78.31v3.23H80.61z"/><path d="M331.07 226.65s18.46 3 25.8 7.94c9.95 6.64 28.37 30.54 46 23.37 18.35-7.44 21.84-9.75 39.34-3.5l-1.34 5s-12-8.47-32.95 1.63C383.79 272.73 368 249 357.9 241.63c-11.46-8.33-26.33-9.43-26.33-9.43l-1.39-3.49z" fill="#d3b39c"/><path d="M326.16 226.16l-10.09-.95-.62 3 9.89 2.62 6.23 1.32s2.13-3.66.75-5.55z" fill="url(#linear-gradient-25)"/><ellipse cx="315.96" cy="226.81" rx="1.58" ry=".77" transform="rotate(-80.68 315.931 226.81)" fill="#231f20"/><path d="M334.46 56.14c-14.5 8-32.09 35.75-32.09 35.75s-11.91 5.5-13.66 3.92c-1.34-3.34 13.66-32.67 13.66-32.67s-7 8.33-13.66 24.67S255 122.14 255 122.14c1-10.67 4.84-17.59 12.67-35.33 10-23 5.66-32.67 5.66-32.67-.24 9.16-5.27 21.44-16 42.29-1.91-13.17-7.64-32.29-7.64-32.29 1.55 5.82 3.55 28.62 4.37 38.56-3 5.66-6.32 11.89-10 18.77-20 37-13 59.67-13 59.67-6-17-19.33-33.67-19.33-33.67v9.67c13.33 19 14 35.67 14.66 41.67s-.66 37-.66 37h19c.64-65.67 13.27-106.42 26.27-118.17s19-17.25 19-17.25c24.25-8.75 32.75-15.25 32.75-15.25l-17 6c5.96-13 28.71-35 28.71-35z" fill="url(#linear-gradient-26)"/><path class="cls-35" d="M223 163.91s-16.86 3.84-31.64-5.51c0 0 8.52-3.64 16.44-.8 0 0-9.08-4.5-12.5-11.11 0 0 9 2 14.58 8.14 0 0-7-8.69-7.23-14.55 0 0 9.19 8 9.47 11.21s-1.65-9.64-.63-14.86c0 0 4.89 7.08 5.46 12.17 0 0 .66-7.36 4.52-10.43 0 0 3.68 7.5.78 12.18a11.78 11.78 0 0 1 8.15-5s1.89 8.27-7.4 18.56zM302.37 63.14s-9.54-.75-9.54-19.25c0 0 4.75 1.25 6.13 7.75 0 0 .58-5.62 3.41-8.25 0 0 3 6.13 1.34 9.88 0 0 1.75-5.75 6.12-7.75a12.24 12.24 0 0 1-2.25 8.62 12.08 12.08 0 0 1 7.75-3.62s-1.62 4.37-5.5 6c0 0 5.63-1.38 8.13.12a7.19 7.19 0 0 1-7.25 2.75 11.32 11.32 0 0 1 4.75 5 23.74 23.74 0 0 1-13.09-1.25zM273.37 54.14a23 23 0 0 1-7-17.12s3.88.37 5 5.37a8.29 8.29 0 0 1 3-7.62 6.55 6.55 0 0 1 1.09 7.23 8.79 8.79 0 0 1 6.62-5.75s-.66 12.39-8.71 17.89zM250.66 69.32S234.71 61 230.58 49.39c0 0 3.38-1 7.38 3.25a14 14 0 0 1-2.5-9.25 17.86 17.86 0 0 1 6.62 7.38s-2.5-5.38-.87-9.75a13.51 13.51 0 0 1 5 7s-1.13-5.63.87-10.13a8.65 8.65 0 0 1 3.58 7.63s.05-6.63 2.92-10c0 0 8.42 26-2.92 33.8zM322.37 85.38s.67-12.07 13.92-14c0 0-1.58 4.08-4.17 5.83 0 0 4.75-2.08 7.59-1.33 0 0-3.5 3.67-6 3.92 0 0 4.16-.34 6.58 1.08 0 0-3.17 2.17-5.83 2.17 0 0 4 .75 5.83 3 0 .01-10.29 5.75-17.92-.67z"/><path fill="#80708c" d="M201.27 226.36l15-10.75h49.75v-20h18.25l24.75 30.75H201.27z"/><path fill="url(#linear-gradient-27)" d="M201.27 226.36h107.75v19H201.27z"/><path d="M309.26 196.88l-7 25.68s-5 1.15-20 0l-5.67-25.68z" fill="url(#linear-gradient-28)"/><ellipse cx="292.91" cy="196.88" rx="16.36" ry="2.34" fill="url(#linear-gradient-29)"/><path class="cls-30" d="M276.77 167.65c3.73-.8 7.11 4.33 8.79 7 2.7 4.36 3.3 10.63 2.48 12.22a.41.41 0 0 1-.07.11c-.45-1.1-.91-2.19-1.36-3.28a49.15 49.15 0 0 0-2.26-4.61 38.62 38.62 0 0 0-8-10.37 48 48 0 0 1 4.62 6 63.47 63.47 0 0 1 3.78 6.21c.82 1.58 1.47 3.25 2.15 4.9l.61 1.48c-1.24.4-3.73-.93-3.73-.93a20.2 20.2 0 0 1-7.64-8.3c-1.31-2.5-3.75-9.49.63-10.43z"/><path class="cls-40" d="M284.35 179.14a49.15 49.15 0 0 1 2.26 4.61c.45 1.09.91 2.18 1.36 3.28s1 2.47 1.46 3.73a36.71 36.71 0 0 1 1.18 4c.32 1.34.55 2.69.79 4 .06.36-.5.42-.56.06a53.69 53.69 0 0 0-1.25-5.76 60.41 60.41 0 0 0-2.1-5.68l-.61-1.48c-.68-1.65-1.33-3.32-2.15-4.9a63.47 63.47 0 0 0-3.78-6.21 48 48 0 0 0-4.62-6 38.62 38.62 0 0 1 8.02 10.35z"/><path class="cls-30" d="M266.68 184c-1.52-.39-4-2.37-3.54-4.31.53-2.33 5.12-2 6.65-1.61 4.87 1.15 8.32 4.5 8.66 5.5.47 1.42-4.13 2.42-11.77.42z"/><path class="cls-40" d="M265.28 179.36a37.35 37.35 0 0 1 10.66 2.64 40.83 40.83 0 0 1 4.71 2.61 25.81 25.81 0 0 1 8.06 8.28 21.65 21.65 0 0 1 2.39 5.78c.08.35-.44.56-.53.2a22.79 22.79 0 0 0-7.36-11.61 25.59 25.59 0 0 0-3.56-2.61 38.6 38.6 0 0 0-5.73-2.92c-1.93-.77-6.3-2-5.94-1.93z"/><path class="cls-30" d="M290 184.35a36.37 36.37 0 0 1-1-6.35c-.39-3.91-1.42-8.71 1.46-11.92 3.72-4.14 6.51 2.14 6.94 5.28.82 5.92-1.13 11.66-1.78 13.47-.44 1.2-1.31 3.44-2.92 3.39s-2.31-2.66-2.7-3.87zM300.53 162.35c.85-1.48 2.6-3.32 4.48-2.6 2.16.83 2.06 5.14 1.7 7a16.81 16.81 0 0 1-3.56 7.52c-.71.85-2.15 3-3.49 2.14-1.66-1.06-.52-11.64.87-14.06z"/><path class="cls-40" d="M292.78 176.84c0 5 .15 9.92.48 14.87.14 2.16.31 4.33.56 6.49 0 .36-.53.41-.57.05-.55-4.92-.8-9.87-.94-14.82-.12-4.24-.18-8.51.06-12.75a15 15 0 0 1 .33-3c.09-.34.09 7.24.08 9.16z"/><path class="cls-30" d="M308 196.43a20.2 20.2 0 0 0 8.11-.81c1.58-.6 3.72-2.55 3.19-3.83-.36-.88-2.22-1.81-3.3-2.21a12.48 12.48 0 0 0-5.87-.49c-2.61.38-6.08 1.27-7.58 3-1.1 1.23 3.55 4.13 5.45 4.34z"/><path class="cls-40" d="M300.06 176.47c-1.1 4.12-2.09 8.27-3.11 12.41a45 45 0 0 0-1.73 9.89c0 .36-.57.42-.56.06.08-4.26 1.34-8.4 2.34-12.52 1.1-4.55 2.24-9.1 3.51-13.61 1-3.45 2-6.91 3.34-10.25.15-.34-2.55 9.37-3.79 14.02zM308.52 191.57a22.33 22.33 0 0 0-3.83.41 12.2 12.2 0 0 0-3.57 1.5 11.29 11.29 0 0 0-2.65 2.17c-.31.37-.51.7-.79 1.1a4.17 4.17 0 0 0-.81 2.14.28.28 0 0 1-.25.23h-.1a.28.28 0 0 1-.06-.56h.1l-.25.23a4.16 4.16 0 0 1 .55-1.79c.25-.45.57-.86.85-1.29a7.77 7.77 0 0 1 1.63-1.66 12.7 12.7 0 0 1 6.88-2.88 40.42 40.42 0 0 1 11.57.36c.35.08-6.2-.13-9.27.04z"/><path class="cls-30" d="M281.54 195.21a20.6 20.6 0 0 1-6.3.79c-3.08 0-8.44-1.8-8.61-5.53s5.64-3.75 8.2-3.53c3.37.29 6.33.49 9.13 2.7 1 .82 2.37 2.72 1.89 3.6-.67 1.22-3.02 1.52-4.31 1.97zM300 187.15c-1.18-1.88 3.16-9.59 4.68-11.34a12.4 12.4 0 0 1 6.69-3.66c4.47-.43 6.93 7.72-4.3 14.72-.7.45-5.85 2.18-7.07.28z"/><path class="cls-40" d="M269.78 189a26.53 26.53 0 0 1 12.06 1.21 13.87 13.87 0 0 1 5 3.12 12.54 12.54 0 0 1 3.16 5.46c.1.35-.43.55-.53.2a12.22 12.22 0 0 0-3.24-5.48 14 14 0 0 0-5.15-3c-3.56-1.22-11.61-1.49-11.25-1.52zM300.23 188.07a31.58 31.58 0 0 0-4.37 11 .28.28 0 0 1-.56-.09 26.82 26.82 0 0 1 2.05-6.61 46.48 46.48 0 0 1 3.9-7 55 55 0 0 1 9.52-10.85c.23-.22-7.65 8.67-10.54 13.55z"/><path class="cls-11" d="M440.81 244a40.28 40.28 0 0 0-4.81 16.43l10.9 4.12 6.5-6-1.5-13.39z"/><path d="M335.77 177.06a5.73 5.73 0 0 0 0 3.23 23.45 23.45 0 0 1 1 4.64l.39 1.34h1.34s1.1 4 2.91 4 2.68-1.89 3.54-2.28a46.09 46.09 0 0 1 1 4.72l9.37-1.26-10.39-7.39-1.65-4.17-1.18 1s-5.1-4.3-6.33-3.83z" fill="url(#linear-gradient-30)"/><path d="M344.06 183.79a2.68 2.68 0 0 0-.38-1.89c-.59-.79-.9 1.06-.9 1.06a55.53 55.53 0 0 0-5-4.14c-1.1-.59-1.91-.6-2.19-.36 0 0-.22-2.85 1.67-3.56s5-.94 6.61 2.13l.24-.32s.94-4.05 4.09-3.54 4.28 7.35.35 8.73c0 0 1 2.75 0 4.76-.01 0-.78-.57-4.49-2.87z" fill="#23286d"/><path class="cls-30" d="M345.61 192.92s.94-1.81 1.73-2.17 1.3-.15 1.73-.43a9.82 9.82 0 0 1 6.65 1.3s1.42 1.49 1.38 1.77-5.63-.67-7.44-.67-3.54-.08-4.05.2z"/><path d="M363 230.88h2.48s1.53-9.8-2.48-28.21a16.13 16.13 0 0 0-6.13-9.46s-9.88-1.67-12.56.1-12.74 27.81-13.69 31.12l2.6 1.41s9.12-13.06 10.46-13.61c0 0 1.34 4.72 1.58 6.3s-1.11 6.29-1.11 6.29 13.93 2 16.37-.71c0 0-.24-7.55.31-10.46 0 0 2 14.24 2.21 16.68z" fill="url(#linear-gradient-31)"/><path class="cls-9" d="M359.87 269.51s-1.28 8.66-1.67 10.62-1.26 15.82-1.26 16.53-1.57.78-1.89.55-.34-5.2-1.15-7.24-3.33-15.42-3-20.14z"/><path class="cls-9" d="M351.2 268.8s-1.18 14.72-1.58 17.79-.16 3.85-.63 3.62a3.15 3.15 0 0 1-1.18-2.6 42.43 42.43 0 0 0-1.89-9 106.81 106.81 0 0 1-3.14-11.8z"/><path d="M354.85 296.26a2.42 2.42 0 0 0 2.1 0s-.13 2.25-.21 2.76c0 0-.78.55-1.69-.44s-2.05-4.17-1.73-4.76 1.36.6 1.36.6z" fill="url(#linear-gradient-32)"/><path d="M347.82 288s.85 1 1.62.24a19 19 0 0 1-.25 2.87c-.16.16-2-.82-2.13-3.47 0-.19.12-.94.75-.07z" fill="url(#linear-gradient-33)"/><path d="M330.62 224.31a2.57 2.57 0 0 0-1.42.67 9.37 9.37 0 0 1-2.08 1.18c-.12.08.55.47 2 0s-1.18 4.13-1.84 4.72.63.47 1 0c0 0-.95 1.46-.2 1.1a2.76 2.76 0 0 0 1.1-.9s-.63.89-.11 1 1-1 1-1-.67 1.34 0 1.14 2.88-4.17 3-6.34z" fill="url(#linear-gradient-34)"/><path d="M365.23 230.88s.23 5.09-.55 5.52-1.1-3.34-1.1-3.34-.22 1.1-.28.79 0-3 0-3z" fill="url(#linear-gradient-35)"/><path class="cls-30" d="M360.46 223.32s-5.28 2.93-16.09.53a70.22 70.22 0 0 0-2.77 13.8c-1.11 9.12-.79 13.92-1.42 15.42s-.55 11.56-1.1 11.88-.79-.71-.95.31 1.5 6.14 13.54 5.83 18.09-3.47 16.76-5.12a1.88 1.88 0 0 0-1.11-.63s-2.67-14.16-2.75-17.31-.71-14.16-2-16.6a30.87 30.87 0 0 1-2.11-8.11z"/><path class="cls-48" d="M314.27 226.36s-41.08-13.44-77.33 31.06M314.27 228.25s-37.33-1.6-57.58 45.92"/></g><g clip-path="url(#clip-path-3)"><path class="cls-35" d="M623.13 71.94l-293.2.45L329.65 4l-114.87.47.28 68.41-281.18.45v7.94l281.18-.46L216.27 366h7.9L223 80.77l99.06-.41 1.18 285.19h7.9L330 80.33l293.19-.45zM223 72.83l-.25-60.5 99.07-.41.18 60.51z"/><path class="cls-50" d="M163.13 77.05l1.19 289.15M110.74 77.05l1.19 289.15M58.34 77.05l1.19 289.15M5.95 77.05L7.14 366.2M272.23 8.07l1.47 357.68M384.8 76.14l1.19 289.15M439.42 76.14l1.19 289.15M494.04 76.14l1.19 289.15M548.66 76.14l1.2 289.15M-47.86 147.99l669.93-2.76M-47.55 222.84l669.92-2.76M-47.25 296.08l669.93-2.76"/></g><path d="M565.76 363.85l-107.34.26s.9-10.5 11.2-11.32c0 0-1.79-17.42 13.87-19.19 0 0-4.47-24.55 17.91-28.83s35.5 15.85 35.5 15.85z" fill="url(#linear-gradient-36)"/><path d="M560.5 363.89s-56 1.08-49.18-1.52 28.5-3.46 28.5-3.46-39.59.43-32.78-3.9 36.57-1.08 36.57-1.08-42.61-3.29-39.61-7.17 41.11-1.54 43.13 0-22.45-8.86-44.39-8c-12.61.65 13.37-7.58 37.83 1.08 0 0-41.87-10.18-36.07-13.86s36.57 10.83 36.57 10.83-35.07-20.13-30.5-22.3 25.43 10.4 25.43 10.4-29.76-16.46-25.72-19.06S541.59 323 541.59 323s-30.52-22.09-26.74-26.64 23.46 19.92 23.46 19.92-23.2-24-18.41-27.07 18.16 16.68 18.16 16.68-18.41-27.72-13.62-30.11 15.38 25.57 15.38 25.57-8.57-24.05-3.28-28.38 8.07 28.24 8.07 28.24.26-20.44 5.55-21.31 2.78 26.2 2.78 26.2 4.79-18.19 11.85-16.89c5.68 1.08-8.83 32.49-8.83 32.49s10.85-18.84 15.64-17.54-9.6 24.43-9.6 24.43 10.84-12.45 15.13-10.56-15.64 22.25-15.64 22.25 15.13-13.42 20.18-12.12-19.42 19.94-19.42 19.94S583 333.57 586 336.6s-15.51 16.14-15.51 16.14 11.41-6.63 13.74-4.64-23.73 15.79-23.73 15.79z" fill="url(#linear-gradient-37)"/><path d="M537.44 363.78s-8.56-17 .74-23.95 21.31-13.56 17.43-22.47-19-18.59-4.26-27.89 15.89-5 15.89-20.92c.38-12.4-.39-20.54 12.39-26s17.44-8.91 21.7-12.4 17-7 13.56 8.53-20.15 13.56-19.76 27.12 12.79 8.52-.39 28.67c-17.43 25.95 13.63 28.19-12 47.26-15.38 11.44 7.41 22.2 7.41 22.2z" fill="url(#linear-gradient-38)"/><path class="cls-35" d="M550.37 361.81l1.18-1.24c.76-.83 1.86-2 3.19-3.65s2.88-3.61 4.57-6c.83-1.18 1.67-2.48 2.58-3.83s1.75-2.85 2.66-4.39 1.78-3.17 2.62-4.91l1.26-2.65.64-1.35.58-1.41c.77-1.89 1.6-3.82 2.23-5.88.35-1 .69-2 1-3.08s.57-2.12.86-3.2.62-2.15.82-3.26l.63-3.36a67.36 67.36 0 0 0 .92-6.88c.06-.58.14-1.17.18-1.75v-1.76l.09-3.54a30.07 30.07 0 0 0-.1-3.55l-.22-3.55-.23-3.58c-.08-1.19 0-2.42 0-3.62s.2-2.4.39-3.58.38-2.36.71-3.49a45.69 45.69 0 0 1 5.38-12.77 50.11 50.11 0 0 1 3.8-5.44 47 47 0 0 1 4.36-4.63c.8-.68 1.55-1.32 2.29-2a12.76 12.76 0 0 0 1-1c.33-.35.66-.69 1-1q1.86-2.19 3.44-4.37c4.17-5.8 7.25-10.92 9.4-14.5s3.27-5.68 3.27-5.68-1.1 2.11-3.15 5.75c-1 1.82-2.3 4-3.8 6.51s-3.26 5.27-5.34 8.2c-1 1.46-2.17 2.95-3.41 4.44-.32.37-.66.73-1 1.1a11.77 11.77 0 0 1-1 1.07c-.72.68-1.51 1.35-2.26 2a46.92 46.92 0 0 0-4.23 4.61 53.29 53.29 0 0 0-3.71 5.38 44.67 44.67 0 0 0-5.24 12.58c-.33 1.12-.47 2.29-.69 3.43s-.26 2.33-.37 3.5-.09 2.33 0 3.52l.24 3.56.2 3.59a28.75 28.75 0 0 1 .1 3.59c0 1.19-.07 2.39-.11 3.57v1.78c0 .59-.13 1.18-.19 1.77a68.55 68.55 0 0 1-.95 6.94c-.22 1.14-.44 2.27-.65 3.39s-.57 2.2-.84 3.29-.59 2.16-.88 3.22-.72 2.08-1.08 3.1c-.66 2.06-1.52 4-2.32 5.89-.2.47-.4.94-.59 1.41l-.67 1.36-1.3 2.65c-.86 1.73-1.84 3.33-2.69 4.9s-1.85 3-2.74 4.37-1.8 2.62-2.67 3.79c-1.74 2.34-3.34 4.31-4.7 5.89s-2.5 2.78-3.27 3.59z"/><path class="cls-54" d="M617.17 277.9s.07-7.29 3.33-11 7-3.54 9-.25 2.67 1.52 4.17 1.78 4.85 2.1 5.73 7.89c0 0-6.31-1.92-8.93-.79s-12.85 3.32-12.85 3.32z"/><path d="M590.76 288.38l2.59 8s-11.57 3.07-12.71 2.92-4.45.76-5.32.76-1.32-.5.38-1.59c0 0-7.9 2.74-5 .24 0 0-2.42.77-.87-1.07s3.78-3.73 5.69-3.95 4.64.31 6.73-.55 8.51-4.76 8.51-4.76z" fill="url(#linear-gradient-39)"/><path fill="url(#linear-gradient-40)" d="M602.12 305.07l2.06 5.77 10.4-3.86-.28-8.68-12.18 6.77z"/><path d="M665.8 315.32s0 47.82-1.59 60.16l-7.15-.52-6-40s-6.92 1.82-11.66 1.48l-5.11 39.54s-6.07 1.38-8.46-.62l-4.91-55.1 21.76-5.26z" fill="#5e7768"/><path class="cls-9" d="M656.29 374.33l8.5 1.16a27.9 27.9 0 0 0-.35 4.77c.21.83-.67 9.14-.67 9.14s.35 1.31 0 1.62-2.18 1.33-5.22.43-4.8-1.77-5.77-5.15-1.09-5.48.41-5.71 4.17 2.13 4.17 2.13zM625.82 375.25s1.25 2.49 9.32.25c0 0-1 13.44-1 14.38s-1.31 3.14-5.36 2.24-5.42-2.63-7.63-7.45 1.08-5.66 2.38-4.89 4 2.86 4 2.86z"/><path d="M591 289.08l2.08 6.77s17.25-5.09 21.17-5.08c0 0-.33 21.19 1.8 29 0 0 38.34 4 49.84-3.67 0 0-4.64-34.64-29.46-40.64 0 0-5.09-2.9-19 2.57S591 289.08 591 289.08z" fill="url(#linear-gradient-41)"/><path d="M588.58 313.78s3.31-2.85 5.18-2.4a3.06 3.06 0 0 1 2.22 2.26l-2.66 3.82z" fill="url(#linear-gradient-42)"/><path class="cls-11" d="M576.2 307.69l19.84 23.76-23.51 12.68-10.19-29.6 13.86-6.84z"/><path class="cls-60" d="M580.15 312.35s5.27-8.41 12.17-1.08.52 17.66.52 17.66l1 .73s6.83-10.71-.94-19.36-13.66 1.48-13.66 1.48zM569.91 345.33l27.91-14.81 1.5 2.56-28.04 14.72-1.37-2.47z"/><ellipse class="cls-60" cx="569.28" cy="311.11" rx="8.12" ry=".71" transform="rotate(-26.43 569.162 311.072)"/><path class="cls-11" d="M556.38 320.64l9.61 4.49 4.47 13L554.65 325l1.33-3.37.4-.99z"/><path class="cls-9" d="M588.18 313.56s-.74 1 .15 1.16a2.77 2.77 0 0 0 2.38-.71c.62-.53 1.75-2.17 1-2.32s-2.57.79-3.53 1.87z"/><path class="cls-9" d="M589.83 314.56s-.93 1.28-.13 1.74 3.49-2.38 3.37-3.13-1.47-.17-3.24 1.39z"/><path class="cls-9" d="M590.67 316.06s-.55.95.11 1.17 1.25 0 2.59-1.71-.11-1.58-1.15-.85a17.49 17.49 0 0 1-1.55 1.39z"/><path class="cls-9" d="M592.3 316.75s-.45 1.84.4 1.66 1.57-1.58 1.81-2.3c.36-1.02-1.13-.73-2.21.64z"/><path d="M604.53 311.64l-2.59-7.18c-2.14.77-7.38 5.22-8.59 6.26-.64-.18-1.25-.31-1.66-.39a14.34 14.34 0 0 1-2.37-.8.32.32 0 0 0-.43.39 4 4 0 0 0 1.74 2s2.48-.13 3 1.33c.37 1.07 1 1.66 1.6 1.73a1.08 1.08 0 0 0 .5-.05 1 1 0 0 0 .58-.41c2.52-.99 8.22-2.88 8.22-2.88z" fill="url(#linear-gradient-43)"/><path class="cls-48" d="M552.64 320.51s-36.37-23.43-89-18.25M553.9 324.45s-46.65-16.33-88-3.85"/><path class="cls-9" d="M103.89 441.27s.8 1.88 8.44 1.82c0 0 7.32.13 8.45-1.82l-1.26 15.33s-8.74 5.29-14.3-.34z"/><ellipse class="cls-62" cx="112.33" cy="442.16" rx="8.71" ry="3.42"/><circle class="cls-63" cx="53.47" cy="409.04" r=".99"/><circle class="cls-54" cx="33.38" cy="409.04" r=".99"/><circle class="cls-63" cx="49.49" cy="409.04" r=".99"/><circle class="cls-54" cx="17.75" cy="418.46" r=".99"/><circle class="cls-63" cx="51.48" cy="405" r=".99"/><path class="cls-63" d="M52.48 427.45l49.86-1.76 31.84 28.18-55.6 7.53-26.1-33.95z"/><path d="M78.21 440.11s.84 11.49 2.19 15.61c0 0 3.54 5.25 13.19.63 0 0 3-12.85 2.71-15.73L84.94 440z" fill="#f1ef8d"/><path class="cls-11" d="M83.74 424.53s2.91 15.28 3.05 17.05a26 26 0 0 0 13.43-.35l2.12-15.54z"/><path class="cls-30" d="M62.21 423.58L64.34 438s3.7 4.83 11.37 1.21l2.11-14.76z"/><path d="M93.89 426s.43-7.67-7.1-15" stroke-width=".53" stroke="#465fac" stroke-miterlimit="10" fill="none"/><path d="M79.19 405s8.49 2.54 9.54 8.05c0 0-7.05 1.04-9.54-8.05z" fill="url(#linear-gradient-44)"/><path d="M93 420.79s-1.69-5.85.86-9.26c.04 0 2.31 5.14-.86 9.26z" fill="url(#linear-gradient-45)"/><ellipse cx="93.18" cy="425.34" rx="2.77" ry="9.16" transform="rotate(-87.8 93.175 425.331)" fill="#72692b"/><path class="cls-62" d="M85.43 426.54s2.64-3.08 10-2 4.33 3 4.33 3-7.59 2.07-14.33-1z"/><path class="cls-54" d="M78.58 461.4v15.35l55.6-8.38v-14.5l-55.6 7.53zM52.48 427.45v13.17l26.1 36.13V461.4l-26.1-33.95z"/><ellipse class="cls-62" cx="70.01" cy="424.03" rx="1.49" ry="7.82" transform="rotate(-86.7 70 424.024)"/><path d="M70.81 425.34s-7.53-6.42-8-12.46c0 0 6.59 7.46 7.16 10.45 0 0-2.26-9.74-1.26-12.72 0 0 3.41 6.89 2.06 12.22 0 0 2.34-8.81 4.54-9.88 0 0 .64 7.79-4.19 12.39" fill="url(#linear-gradient-46)"/><ellipse cx="87.25" cy="440.62" rx="4.3" ry="9.06" transform="rotate(-86.76 87.234 440.608)" fill="#ccc765"/><path class="cls-62" d="M78.58 441.47S80.75 439.1 88 440s7 3.19 7 3.19-8.86 4.98-16.42-1.72z"/><path d="M165.44 383.53s8.24-.06 9 0c0 0 2.7 4 0 7.6l-12.83.59a39.29 39.29 0 0 0 3.83-8.19z" fill="url(#linear-gradient-47)"/><path fill="url(#linear-gradient-48)" d="M94.85 377.91l1.88 6.67.7-.23-1.87-7.03-.71.59z"/><path d="M93.46 365.22l-4.76-2s3-39.05 16.46-58.08 32.11-18.24 47.18-1.39 17.84 21 16 22.4-10.5 7.14-10.5 7.14 4.16 15.26 4.36 17.24l-37.47 5.56s-3-12.1-6.14-13.68-10.51-7.73-11.5-12.09l-3.57-.2s-10.06 29.55-10.06 35.1z" fill="url(#linear-gradient-49)"/><path d="M133.57 306.81s2.78 9.78 24.32 16.65c0 0-14.67 13-16.26 13.65 0 0-.39 4.06 1.46 5 0 0 25.13-14.08 25.78-16.65s-11.82-16.36-11.82-16.36-12.84-14.9-18.33-15.76" fill="url(#linear-gradient-50)"/><path d="M130.28 291.09s2.23 15.33-7.15 19.16c-7.14 2-14.26-9.58-14.26-9.58s9.79-11.55 21.41-9.58z" fill="url(#linear-gradient-51)"/><path d="M128.79 341.05s-1.58-4.27-1.46-6l7.64-.79s1 5.73.54 7.3c0 .04-5.99.85-6.72-.51z" fill="#77c699"/><ellipse class="cls-54" cx="131.15" cy="334.63" rx="4.17" ry=".87" transform="rotate(-7.89 131.082 334.453)"/><path class="cls-77" d="M130.13 321.51c-.14 0-1.19 7.38 1.84 12.79M130.54 330.67a8.39 8.39 0 0 0 4.74-4.4M134.08 328.12s1.95 1.79 5.27 0M130.9 334.72a20.39 20.39 0 0 0-5.87-6.81"/><ellipse class="cls-78" cx="130.04" cy="319.99" rx=".87" ry="2.07"/><ellipse class="cls-78" cx="135.87" cy="324.24" rx="2.18" ry=".93" transform="rotate(-74.65 135.856 324.229)"/><ellipse class="cls-78" cx="140.54" cy="327.53" rx="1.54" ry=".49" transform="rotate(-25.34 140.57 327.567)"/><ellipse class="cls-78" cx="123.73" cy="326.57" rx=".73" ry="1.98" transform="rotate(-42.53 123.73 326.565)"/><path class="cls-60" d="M160.69 343.87s5.82 18.28 6.32 28.59-4.86 22.3-15.47 29.83c0 0 20.82-2.57 28.55-2.08 0 0 .39 7.73 0 8.63 0 0-63.53 22-64.72 5.25a45.64 45.64 0 0 1-.57-8.29s-8.54 6.75-13.21-.4c-4-6.08 11.76-31.72 17.58-38.46s5.42-11.59 5.42-11.59z"/><path class="cls-79" d="M180.12 401s8.49-.59 12.39.6c0 0-1.58 14.16-4.1 18.81 0 0-1.71-12.4-2.64-13.66l-5.51.13zM175.07 384.85s6.34-.07 7.53.26c0 0 .59 10.25-.33 13.22 0 0-3.44-6.87-4.49-7.4l-2.92-.5a7.09 7.09 0 0 0 .21-5.58z"/><path d="M91.21 372.58c1.63 3.25 2.15 2.61 2.15 2.61.1-.8-1.78-3.92-1.43-4.71.79-1.09 1.28-.85 1.93-.6s.94 2 1.39 2.83.33-1.52.19-3.5-3-4.4-3-4.4l-3.13-1.31c.18.08 0 3.86.17 6.5a10.92 10.92 0 0 0 2.4 5.24s1.83 2.42 1.54 1.16-.3-1.29-.3-1.29" fill="url(#linear-gradient-52)"/><path fill="url(#linear-gradient-53)" d="M93.99 378.57l-2.64-8.44 2.71-1.01 2.52 8.66-2.59.79z"/><path class="cls-54" d="M93.56 385.05l6.11-1.89.76 13.35-6.87-11.46z"/><path d="M141.63 337.11s-7.77-.21-9.12-.26.51 1.3 1.81 1.35 3.47.46 1.48 1.29-6.67-.37-7.51-.32c-.48 0-.48.72.74 1.36s-2-.06-1.66.63c.18.4.87.83 2.31 1.13-.54 0-1.75.23-1.69.77s3.78.94 6.12.76v.05h-.51s-4.26.63-4.07 1.09 8.3.51 13.59-2.86c-.03 0-1.65-3-1.49-4.99z" fill="url(#linear-gradient-54)"/><path d="M102.71 292.25s4.82 16.41 15.53 18.19c4.3.93 13.37-18.1 6.24-27.09s-14.27-4.09-14.27-4.09-7.35 4.14-7.5 12.99z" fill="#fee5d4"/><path d="M112 279.19s4 6.47 14 6.75c2.06-2.62-6.31-18.78-17.13-13.62-6.45 3.07-8.87 11.1-8.73 25.37s-5.36 15.17-6.14 24.43c-.89 10.17 10.28 18.31 16.74 11.56 4.47-4.66 6.47-22.5 6.37-23.5 0 0-7.29-5.29-9.45-12.2 0 0-1.8-5.21-.88-8 2.12-6.43 5.95-4.79 5.22-10.79z" fill="url(#linear-gradient-55)"/><path d="M135.21 371.9c-6.88 7.1-17.23 16.45-20.41 33.9 0 0-6.94 5-11.33 1.65s-1-11.49-1-11.49 5.82-15.89 13.58-24.9 9.1-13.81 8.57-15.71l17.3-5.59s.63 14.56-6.71 22.14z" fill="url(#linear-gradient-56)"/><path d="M151.54 402.29s-10.44 9.5-14.6 12.25l41.88-14.38z" fill="url(#linear-gradient-57)"/></svg>