<?xml version="1.0" encoding="UTF-8"?>
<svg width="1020px" height="800px" viewBox="0 0 1020 800" version="1.1" xmlns="http://www.w3.org/2000/svg" xmlns:xlink="http://www.w3.org/1999/xlink">
    <!-- Generator: Sketch 53.2 (72643) - https://sketchapp.com -->
    <title>XMLID_308_</title>
    <desc>Created with Sketch.</desc>
    <g id="Page-1" stroke="none" stroke-width="1" fill="none" fill-rule="evenodd">
        <g id="Artboard" transform="translate(0.000000, 1.000000)">
            <g id="Object" transform="translate(-1.000000, -1.000000)">
                <g id="XMLID_308_">
                    <g id="wizard" transform="translate(0.472531, 0.167127)">
                        <rect id="Rectangle" x="0.527469266" y="0.832872812" width="1019" height="799"></rect>
                        <g id="XMLID_199_" transform="translate(752.527469, 227.832873)" fill="#0C6880" fill-rule="nonzero">
                            <path d="M56.6,1 C58.4,1.4 74.3,28.9 51.9,41 C29.5,53.1 47.2,116.2 0.6,101.6 C0.6,101.7 9.4,-8.1 56.6,1 Z" id="XMLID_197_"></path>
                        </g>
                        <g id="XMLID_235_" transform="translate(327.527469, 114.832873)" fill="#152D57" fill-rule="nonzero">
                            <path d="M39.9,6.4 C51.8,2.7 69.4,-1 81.8,1.9 C93.2,4.6 103,14.6 114,19 C127.7,24.4 143.1,24 157.3,20.3 C172.4,16.3 186.2,8.7 199.3,0.6 C201.7,5.1 204.4,9.4 207,13.9 C198.2,41.5 177.1,63.4 155.3,82.6 C133.4,102 108.9,120.4 80.2,125.8 C51.4,131.2 17.6,119.7 5.9,92.9 C1.2,82.3 0.4,70.4 0.8,58.8 C1.1,50 2.1,41.1 5.8,33.2 C12.1,19.7 25.7,10.9 39.9,6.4 Z" id="XMLID_335_"></path>
                        </g>
                        <path d="M716.527469,234.232873 L708.827469,234.932873 L640.027469,192.532873 C615.027469,175.932873 585.827469,171.432873 557.827469,177.232873 L550.527469,178.732873 L558.827469,205.832873 L558.827469,205.832873 C579.727469,229.032873 608.827469,243.032873 640.027469,245.132873 L708.027469,249.532873 L708.127469,249.532873 L708.127469,249.532873 C733.927469,285.832873 775.227469,307.932873 819.727469,309.132873 L847.627469,309.932873 L855.227469,289.132873 L832.027469,269.832873 C799.827469,243.032873 758.227469,230.232873 716.527469,234.232873 Z" id="XMLID_160_" fill="#4B9BEA" fill-rule="nonzero"></path>
                        <path d="M832.027469,269.832873 C821.227469,260.832873 809.327469,253.432873 796.827469,247.732873 C788.527469,254.232873 781.127469,265.632873 781.127469,285.532873 C781.127469,291.732873 780.427469,297.232873 779.227469,302.032873 C792.127469,306.332873 805.827469,308.732873 819.727469,309.132873 L847.627469,309.932873 L855.227469,289.132873 L832.027469,269.832873 Z" id="XMLID_226_" fill="#C18721" fill-rule="nonzero"></path>
                        <g id="XMLID_164_" transform="translate(512.527469, 231.832873)" fill="#4B9BEA" fill-rule="nonzero">
                            <g id="XMLID_343_">
                                <path d="M138,0 C138,0 257.2,207.8 69.3,215.4 C-118.6,223 138,0 138,0 Z" id="XMLID_344_"></path>
                            </g>
                        </g>
                        <path d="M570.027469,446.532873 C736.427469,439.732873 662.027469,276.032873 642.827469,238.632873 C603.627469,274.132873 433.527469,435.232873 557.727469,446.632873 C561.627469,446.832873 565.727469,446.732873 570.027469,446.532873 Z" id="XMLID_274_" fill="#0C6880" fill-rule="nonzero"></path>
                        <g id="XMLID_165_" transform="translate(344.527469, 245.832873)" fill="#142E54" fill-rule="nonzero">
                            <g id="XMLID_340_">
                                <path d="M306,15 C306,15 364.8,162.4 247.9,197.6 C186.6,216 61.5,160.9 0.4,275.5 L13.4,211.3 C13.5,211.3 259.5,-63.7 306,15 Z" id="XMLID_341_"></path>
                            </g>
                        </g>
                        <g id="XMLID_14_" transform="translate(388.527469, 441.832873)" fill="#142E54" fill-rule="nonzero">
                            <path d="M169.5,12 C169.5,12 251.9,68.6 249.9,153.3 C247.9,238 77.6,128.5 36,81.3 L0.4,80.6 L41,64.8 L136,84.1 L165.6,117.5 C165.6,117.5 92.6,51.9 112.5,17 C132.5,-18 169.5,12 169.5,12 Z" id="XMLID_16_"></path>
                        </g>
                        <path d="M299.027469,592.632873 C299.027469,592.632873 251.827469,587.632873 192.727469,543.032873 C133.727469,498.332873 28.6274693,496.732873 28.6274693,496.732873 L19.4274693,522.632873 C16.3274693,531.232873 13.6274693,540.032873 11.4274693,548.932873 C72.0274693,619.732873 146.727469,601.032873 146.727469,601.032873 C83.4274693,624.732873 26.9274693,606.032873 2.92746927,595.432873 C-4.87253073,668.332873 11.1274693,743.932873 48.6274693,799.532873 L48.6274693,799.532873 L104.527469,795.832873 C183.727469,790.832873 256.527469,733.232873 300.527469,640.732873 L308.427469,624.032873 L299.027469,592.632873 Z" id="XMLID_296_" fill="#FCBA34" fill-rule="nonzero"></path>
                        <path d="M32.2274693,754.732873 L88.0274693,751.132873 C167.227469,746.132873 240.027469,688.532873 284.027469,596.032873 L286.827469,590.232873 C269.027469,585.832873 233.827469,574.032873 192.827469,543.032873 C133.827469,498.332873 28.7274693,496.732873 28.7274693,496.732873 L19.5274693,522.632873 C19.0274693,524.032873 18.6274693,525.332873 18.1274693,526.732873 C73.0274693,570.632873 130.327469,556.332873 130.327469,556.332873 C90.5274693,571.232873 53.3274693,569.432873 25.3274693,563.332873 C82.9274693,616.932873 146.827469,601.032873 146.827469,601.032873 C83.5274693,624.732873 27.0274693,606.032873 3.02746927,595.432873 C-1.57253073,637.932873 2.02746927,681.332873 13.2274693,721.232873 C18.7274693,732.932873 25.0274693,744.232873 32.2274693,754.732873 L32.2274693,754.732873 Z" id="XMLID_310_" fill="#FFCA6C" fill-rule="nonzero"></path>
                        <path d="M835.827469,286.832873 C734.027469,380.932873 498.827469,564.732873 280.927469,588.332873 C249.127469,591.732873 240.327469,634.232873 268.427469,649.332873 C268.827469,649.532873 269.327469,649.832873 269.827469,650.032873 C305.527469,667.932873 695.727469,483.532873 875.827469,274.832873 C892.127469,255.932873 912.027469,240.332873 934.427469,229.332873 C948.027469,222.632873 962.927469,217.332873 976.727469,216.932873 L976.727469,216.932873 C964.627469,178.032873 927.327469,152.632873 886.727469,155.632873 L879.327469,156.232873 L879.327469,156.232873 C882.427469,202.632873 870.027469,255.232873 835.827469,286.832873 Z" id="XMLID_17_" fill="#45D5C1" fill-rule="nonzero"></path>
                        <path d="M281.027469,593.932873 C498.927469,570.432873 734.127469,386.532873 835.927469,292.432873 C867.427469,263.232873 880.427469,216.132873 879.827469,172.532873 C879.227469,214.532873 866.127469,258.932873 835.927469,286.832873 C734.127469,380.932873 498.927469,564.732873 281.027469,588.332873 C261.227469,590.432873 250.327469,607.732873 251.727469,624.132873 C252.927469,609.632873 263.427469,595.832873 281.027469,593.932873 Z" id="XMLID_231_" fill="#142E54" fill-rule="nonzero"></path>
                        <path d="M597.127469,564.832873 L597.327469,565.432873 C592.927469,535.432873 580.127469,499.532873 555.127469,456.432873 L543.027469,451.032873 C527.327469,444.032873 510.327469,440.532873 493.227469,440.832873 L493.227469,440.832873 C471.827469,441.932873 454.527469,458.632873 452.727469,479.932873 L452.727469,479.932873 C452.727469,489.832873 457.627469,504.532873 463.527469,512.532873 L538.827469,613.532873 C488.127469,587.032873 432.027469,572.532873 374.727469,571.232873 L328.227469,570.232873 L293.827469,605.332873 L335.827469,593.132873 C335.827469,593.132873 477.127469,706.232873 548.927469,698.532873 C620.827469,690.832873 597.127469,564.832873 597.127469,564.832873 Z" id="XMLID_175_" fill="#0C6880" fill-rule="nonzero"></path>
                        <path d="M557.627469,468.832873 C558.727469,468.732873 560.027469,468.232873 561.327469,467.332873 C559.327469,463.732873 557.327469,460.032873 555.127469,456.332873 L543.027469,450.932873 C527.327469,443.932873 510.327469,440.432873 493.227469,440.732873 L493.227469,440.732873 C479.527469,441.432873 467.527469,448.532873 460.227469,459.032873 C460.427469,459.132873 460.627469,459.232873 460.827469,459.332873 C499.927469,474.932873 549.427469,469.632873 557.627469,468.832873 Z" id="XMLID_229_" fill="#142E54" fill-rule="nonzero"></path>
                        <path d="M620.127469,193.532873 L612.427469,189.832873 L549.127469,171.532873 C525.827469,164.832873 501.027469,175.132873 489.427469,196.332873 L470.127469,231.532873 C459.827469,250.432873 462.327469,273.732873 476.427469,290.132873 C478.627469,292.732873 480.727469,295.332873 482.727469,297.932873 C489.027469,320.932873 508.527469,406.532873 466.527469,452.532873 C466.527469,452.532873 509.327469,464.032873 512.327469,462.432873 C513.027469,462.032873 519.227469,458.732873 528.027469,453.732873 C545.727469,458.332873 561.227469,455.632873 561.227469,455.632873 C617.727469,422.032873 629.927469,309.732873 629.927469,309.732873 L645.727469,285.432873 C666.527469,253.232873 654.527469,210.132873 620.127469,193.532873 Z" id="XMLID_159_" fill="#1A9F9E" fill-rule="nonzero"></path>
                        <path d="M528.527469,396.832873 C579.527469,325.732873 528.127469,254.932873 528.127469,254.932873 L528.127469,254.932873 C509.427469,240.032873 490.827469,242.232873 475.627469,260.632873 C473.027469,263.832873 469.827469,267.632873 466.327469,272.032873 C468.427469,278.532873 471.827469,284.732873 476.427469,290.132873 C478.627469,292.732873 480.727469,295.332873 482.727469,297.932873 C489.027469,320.932873 508.527469,406.532873 466.527469,452.532873 C466.527469,452.532873 468.027469,452.932873 470.427469,453.532873 C495.127469,438.132873 516.727469,413.232873 528.527469,396.832873 Z" id="XMLID_208_" fill="#142E54" fill-rule="nonzero"></path>
                        <path d="M485.327469,423.332873 C503.127469,430.932873 541.127469,443.632873 584.227469,435.832873 C589.427469,434.932873 593.027469,440.732873 589.927469,444.932873 C583.327469,453.932873 574.327469,464.532873 568.727469,465.132873 C560.527469,465.932873 511.027469,471.232873 471.827469,455.632873 C460.327469,451.032873 457.127469,436.132873 465.827469,427.232873 L465.827469,427.232873 C470.827469,422.032873 478.627469,420.432873 485.327469,423.332873 Z" id="XMLID_172_" fill="#45D5C1" fill-rule="nonzero"></path>
                        <path d="M505.727469,186.932873 L505.727469,186.932873 C483.127469,179.032873 466.327469,187.332873 458.127469,209.832873 C447.127469,239.932873 419.727469,317.232873 395.427469,350.932873 C373.627469,381.132873 354.427469,377.732873 340.127469,397.832873 C297.327469,458.132873 350.827469,536.832873 350.827469,536.832873 C342.527469,510.332873 360.227469,461.632873 401.527469,431.132873 C414.227469,421.732873 432.127469,418.132873 455.927469,422.732873 C509.027469,432.932873 542.627469,357.032873 553.227469,320.632873 C577.727469,236.632873 505.727469,186.932873 505.727469,186.932873 Z" id="XMLID_168_" fill="#5ECAEE" fill-rule="nonzero"></path>
                        <g id="XMLID_203_" transform="translate(471.527469, 207.832873)" fill="#122E53" fill-rule="nonzero">
                            <g id="XMLID_327_">
                                <path d="M30.6,0.7 C30.6,0.7 78.3,26.1 44.9,67.7 C11.5,109.3 -28.9,39.8 30.6,0.7 Z" id="XMLID_328_"></path>
                            </g>
                        </g>
                        <path d="M367.927469,407.332873 C386.727469,386.632873 408.027469,393.132873 436.727469,362.032873 C468.727469,327.332873 510.327469,243.732873 526.827469,211.332873 C527.327469,210.332873 527.827469,209.432873 528.327469,208.532873 C516.427469,194.432873 505.627469,186.932873 505.627469,186.932873 L505.627469,186.932873 C483.027469,179.032873 466.227469,187.332873 458.027469,209.832873 C447.027469,239.932873 419.627469,317.232873 395.327469,350.932873 C373.527469,381.132873 354.327469,377.732873 340.027469,397.832873 C302.827469,450.332873 338.427469,516.632873 348.327469,533.032873 C338.827469,499.432873 332.227469,446.632873 367.927469,407.332873 Z" id="XMLID_202_" fill="#4B9BEA" fill-rule="nonzero"></path>
                        <path d="M404.827469,405.732873 C408.227469,405.532873 411.327469,403.232873 413.027469,399.632873 L484.627469,292.232873 C487.927469,287.332873 489.127469,280.832873 488.127469,274.532873 L488.127469,274.532873 C486.127469,262.632873 476.527469,255.232873 467.227469,258.432873 L458.927469,261.232873 L458.927469,261.232873 C446.827469,267.432873 436.227469,276.932873 427.727469,288.732873 C422.227469,301.632873 416.427469,314.332873 410.527469,325.632873 C409.227469,330.432873 408.227469,335.332873 407.427469,340.432873 L401.127469,382.532873 C398.127469,374.832873 390.227469,396.932873 386.827469,387.732873 C366.927469,411.732873 353.427469,379.132873 340.227469,397.732873 C338.027469,400.832873 336.127469,404.032873 334.327469,407.232873 C360.727469,408.532873 396.527469,409.532873 404.827469,405.732873 Z" id="XMLID_247_" fill="#122E53" fill-rule="nonzero"></path>
                        <path d="M505.727469,186.932873 L505.727469,186.932873 C487.127469,180.432873 472.527469,184.932873 463.327469,199.132873 C471.427469,195.132873 481.327469,195.032873 492.727469,198.932873 L492.727469,198.932873 C492.727469,198.932873 564.827469,248.632873 540.327469,332.632873 C534.227469,353.732873 520.327469,388.032873 499.427469,411.232873 C527.627469,389.832873 546.027469,345.732873 553.327469,320.532873 C577.727469,236.632873 505.727469,186.932873 505.727469,186.932873 Z" id="XMLID_204_" fill="#0C6880" fill-rule="nonzero"></path>
                        <path d="M527.427469,207.032873 C526.527469,198.632873 510.727469,191.032873 490.027469,184.032873 C475.327469,184.032873 464.327469,192.932873 458.127469,209.832873 C456.427469,214.632873 454.227469,220.632873 451.727469,227.432873 C455.627469,223.232873 458.827469,219.432873 460.927469,216.832873 C473.127469,201.432873 527.427469,207.032873 527.427469,207.032873 Z" id="XMLID_198_" fill="#122E53" fill-rule="nonzero"></path>
                        <g id="XMLID_171_" transform="translate(365.527469, 170.832873)" fill="#5ECAEE" fill-rule="nonzero">
                            <path d="M156.2,33.7 C156.2,33.7 103.2,25 91,40.3 C81.3,52.4 48.2,89.7 27.3,81.5 C6.4,73.4 -23,34.9 29.8,10.2 C84.4,-15.2 154.2,14.9 156.2,33.7 Z" id="XMLID_170_"></path>
                        </g>
                        <g id="XMLID_169_" transform="translate(376.527469, 156.832873)" fill="#0C6880" fill-rule="nonzero">
                            <path d="M145.2,47.7 C145.2,47.7 102.9,33.4 74.4,45.2 C45.9,57 -12.7,61 3.6,36.5 C19.9,12.1 142.6,-22.6 171.1,20.7 C199.6,64 145.2,47.7 145.2,47.7 Z" id="XMLID_167_"></path>
                        </g>
                        <path d="M519.227469,185.932873 C519.227469,185.932873 468.427469,170.632873 430.327469,208.032873 C437.827469,206.432873 445.027469,204.332873 450.927469,201.932873 C479.427469,190.232873 521.727469,204.432873 521.727469,204.432873 C521.727469,204.432873 528.327469,206.432873 535.727469,207.132873 C534.827469,202.632873 526.927469,191.532873 519.227469,185.932873 Z" id="XMLID_216_" fill="#122E53" fill-rule="nonzero"></path>
                        <path d="M286.827469,587.632873 C284.827469,587.832873 282.827469,588.132873 280.827469,588.332873 C249.127469,591.732873 240.327469,634.232873 268.427469,649.332873 C268.927469,649.532873 269.327469,649.832873 269.827469,650.032873 C274.927469,652.632873 287.427469,650.932873 305.627469,645.732873 C288.427469,628.232873 286.327469,602.932873 286.827469,587.632873 Z" id="XMLID_146_" fill="#142E54" fill-rule="nonzero"></path>
                        <g id="XMLID_161_" transform="translate(510.527469, 169.832873)" fill="#45D5C1" fill-rule="nonzero">
                            <g id="XMLID_318_">
                                <path d="M36.6,2.7 C37.2,2.7 45.9,4.1 54.4,5.6 C64.1,7.2 71.2,15.4 71.6,25.2 L72.4,45.8 L0.3,14.2 L6.3,2.84217094e-14 L36.6,2.7 Z" id="XMLID_319_"></path>
                            </g>
                        </g>
                        <path d="M561.527469,181.132873 L529.427469,145.732873 L520.527469,108.032873 C520.527469,108.032873 479.627469,81.0328728 464.127469,117.832873 L461.627469,157.132873 L474.127469,153.532873 L479.227469,168.732873 C479.427469,173.532873 484.627469,176.432873 488.727469,174.032873 L509.427469,162.332873 L529.527469,197.832873 L576.927469,209.332873 L576.927469,209.332873 C577.527469,197.732873 571.527469,186.932873 561.527469,181.132873 Z" id="XMLID_192_" fill="#FCBA34" fill-rule="nonzero"></path>
                        <g id="XMLID_195_" transform="translate(508.527469, 158.832873)" fill="#152D57" fill-rule="nonzero">
                            <g id="XMLID_307_">
                                <path d="M0.9,3.4 L7.2,0.6 C7.2,0.6 19.3,17.8 11.4,22 L0.9,3.4 Z" id="XMLID_309_"></path>
                            </g>
                        </g>
                        <ellipse id="XMLID_190_" fill="#152B51" fill-rule="nonzero" transform="translate(516.552569, 138.015013) rotate(-79.909373) translate(-516.552569, -138.015013) " cx="516.552569" cy="138.015013" rx="21.8992914" ry="31.9989646"></ellipse>
                        <g id="XMLID_140_" transform="translate(228.527469, 289.832873)" fill="#152B51" fill-rule="nonzero">
                            <path d="M73.3,0.6 C73.3,0.6 51.6,62.6 22.5,71.9 C-6.6,81.2 -5.4,115.9 16.9,111.6 C39.2,107.2 109.9,91.1 73.3,0.6 Z" id="XMLID_191_"></path>
                        </g>
                        <path d="M522.127469,237.132873 L522.127469,237.132873 C519.027469,222.132873 504.427469,212.732873 490.227469,216.732873 L477.427469,220.332873 L477.427469,220.332873 C436.527469,237.532873 406.927469,275.132873 398.727469,320.432873 L388.327469,378.432873 C371.827469,338.232873 335.027469,309.932873 291.827469,304.432873 L215.927469,299.032873 L211.327469,308.932873 L286.427469,376.132873 C308.227469,395.732873 336.927469,405.832873 366.227469,404.332873 L394.727469,402.832873 C399.927469,402.532873 404.627469,399.732873 407.227469,395.132873 L407.227469,395.132873 L516.627469,259.432873 C521.727469,253.432873 523.727469,245.132873 522.127469,237.132873 Z" id="XMLID_19_" fill="#FCBA34" fill-rule="nonzero"></path>
                        <path d="M875.127469,296.932873 L854.527469,254.932873 L840.027469,292.332873 L849.027469,303.432873 L840.027469,312.932873 L847.727469,313.632873 C853.027469,314.132873 858.327469,312.332873 862.227469,308.732873 L875.127469,296.932873 Z" id="XMLID_15_" fill="#FCBA34" fill-rule="nonzero"></path>
                        <path d="M523.027469,205.632873 L510.727469,183.932873 L552.627469,193.932873 C562.027469,196.232873 570.427469,201.632873 576.327469,209.332873 L582.827469,215.632873 L523.027469,205.632873 Z" id="XMLID_152_" fill="#45D5C1" fill-rule="nonzero"></path>
                        <path d="M584.227469,226.932873 C584.227469,226.932873 608.527469,285.232873 579.527469,296.332873 C550.527469,307.432873 496.227469,291.332873 470.627469,348.232873 L477.127469,378.032873 L503.127469,375.332873 C503.127469,375.332873 522.227469,318.032873 581.827469,312.732873 C641.427469,307.432873 584.927469,223.332873 584.927469,223.332873" id="XMLID_173_" fill="#122E53" fill-rule="nonzero"></path>
                        <polygon id="XMLID_162_" fill="#122E53" fill-rule="nonzero" points="593.727469 205.932873 566.727469 218.232873 583.427469 232.332873 590.927469 228.532873"></polygon>
                        <path d="M509.027469,595.132873 C509.027469,595.132873 464.727469,620.632873 476.927469,688.332873 L453.027469,678.632873 C453.027469,678.632873 438.227469,606.332873 490.727469,588.532873 L509.027469,595.132873 Z" id="XMLID_20_" fill="#45D5C1" fill-rule="nonzero"></path>
                        <path d="M485.227469,590.632873 C449.627469,578.632873 412.427469,572.032873 374.627469,571.232873 L328.127469,570.232873 L293.727469,605.332873 L335.727469,593.132873 C335.727469,593.132873 392.027469,638.132873 451.527469,669.432873 C449.827469,650.232873 449.827469,606.732873 485.227469,590.632873 Z" id="XMLID_193_" fill="#142E54" fill-rule="nonzero"></path>
                        <polygon id="XMLID_174_" fill="#FCBA34" fill-rule="nonzero" points="214.627469 312.532873 127.027469 280.432873 182.627469 259.532873 218.527469 300.032873"></polygon>
                        <ellipse id="XMLID_186_" fill="#5ECAEE" fill-rule="nonzero" transform="translate(494.805079, 114.902043) rotate(-8.644661) translate(-494.805079, -114.902043) " cx="494.805079" cy="114.902043" rx="78.1968739" ry="17.5992964"></ellipse>
                        <path d="M572.127469,103.132873 C570.927469,95.4328728 547.427469,92.2328728 516.027469,94.7328728 C527.627469,96.0328728 534.927469,98.9328728 535.527469,103.132873 C537.027469,112.732873 503.527469,125.732873 460.827469,132.232873 C452.527469,133.532873 444.527469,134.432873 437.027469,135.032873 C451.827469,136.732873 473.527469,135.932873 497.427469,132.232873 C540.127469,125.732873 573.527469,112.732873 572.127469,103.132873 Z" id="XMLID_218_" fill="#4B9BEA" fill-rule="nonzero"></path>
                        <path d="M465.127469,114.632873 C476.127469,115.732873 503.927469,117.132873 527.427469,106.832873 C528.727469,106.232873 529.527469,105.032873 529.427469,103.632873 C529.027469,94.1328728 528.727469,56.0328728 546.027469,22.4328728 C548.427469,17.7328728 542.927469,13.0328728 538.627469,15.9328728 C520.227469,28.5328728 490.327469,55.5328728 462.427469,109.732873 C461.327469,111.832873 462.727469,114.432873 465.127469,114.632873 Z" id="XMLID_182_" fill="#5ECAEE" fill-rule="nonzero"></path>
                        <path d="M538.627469,15.9328728 C535.627469,17.9328728 532.327469,20.4328728 528.827469,23.2328728 C511.927469,56.5328728 512.227469,94.1328728 512.627469,103.532873 C512.727469,104.932873 511.927469,106.232873 510.627469,106.732873 C498.027469,112.332873 484.127469,114.532873 472.327469,115.132873 C485.727469,115.832873 508.027469,115.332873 527.427469,106.732873 C528.727469,106.132873 529.527469,104.932873 529.427469,103.532873 C529.027469,94.0328728 528.727469,55.9328728 546.027469,22.3328728 C548.427469,17.7328728 542.927469,12.9328728 538.627469,15.9328728 Z" id="XMLID_223_" fill="#4B9BEA" fill-rule="nonzero"></path>
                        <path d="M472.527469,91.4328728 C469.127469,97.1328728 465.827469,103.232873 462.427469,109.732873 C461.327469,111.832873 462.727469,114.432873 465.127469,114.632873 C476.127469,115.732873 503.927469,117.132873 527.427469,106.832873 C528.727469,106.232873 529.527469,105.032873 529.427469,103.632873 C529.327469,100.932873 529.227469,95.9328728 529.527469,89.4328728 C503.227469,97.3328728 480.527469,93.3328728 472.527469,91.4328728 Z" id="XMLID_277_" fill="#0C6880" fill-rule="nonzero"></path>
                        <path d="M522.127469,237.132873 L522.127469,237.132873 C519.027469,222.132873 504.427469,212.732873 490.227469,216.732873 L477.427469,220.332873 L477.427469,220.332873 C436.527469,237.532873 406.927469,275.132873 398.727469,320.432873 L389.127469,373.632873 C383.227469,361.132873 375.327469,346.132873 369.327469,331.332873 C365.427469,321.932873 362.627469,312.532873 360.527469,304.132873 C356.127469,286.532873 339.627469,274.832873 321.627469,276.132873 L321.627469,276.132873 C321.627469,276.132873 313.527469,275.532873 306.127469,282.332873 C306.127469,282.332873 286.327469,297.832873 285.627469,346.232873 C285.027469,394.632873 242.227469,402.632873 242.227469,402.632873 C242.227469,402.632873 374.127469,410.632873 394.727469,402.932873 C399.927469,402.632873 404.627469,399.832873 407.227469,395.232873 L516.627469,259.532873 C521.727469,253.432873 523.727469,245.132873 522.127469,237.132873 Z" id="XMLID_194_" fill="#88E6FF" fill-rule="nonzero"></path>
                        <path d="M408.127469,324.932873 C416.127469,280.532873 442.127469,242.432873 478.827469,219.932873 L477.527469,220.332873 L477.527469,220.332873 C436.627469,237.532873 407.027469,275.132873 398.827469,320.432873 L389.727469,370.932873 C392.327469,376.232873 391.227469,383.432873 393.427469,388.232873 L408.127469,324.932873 Z" id="XMLID_222_" fill="#4B9BEA" fill-rule="nonzero"></path>
                        <path d="M300.627469,329.032873 C300.927469,304.732873 306.127469,288.732873 311.127469,278.832873 C309.527469,279.732873 307.827469,280.832873 306.227469,282.332873 C306.227469,282.332873 286.427469,297.832873 285.727469,346.232873 C285.527469,358.232873 282.827469,367.732873 278.727469,375.332873 C289.527469,367.232873 300.327469,353.132873 300.627469,329.032873 Z" id="XMLID_212_" fill="#4B9BEA" fill-rule="nonzero"></path>
                        <path d="M708.127469,249.532873 C708.127469,249.532873 759.527469,300.332873 750.827469,319.632873 C742.127469,338.832873 781.227469,331.432873 781.227469,285.532873 C781.227469,259.732873 793.627469,248.232873 804.427469,243.132873 C812.527469,239.332873 812.327469,227.632873 804.127469,223.932873 C789.127469,217.132873 760.927469,214.632873 708.927469,235.032873" id="XMLID_196_" fill="#4B9BEA" fill-rule="nonzero"></path>
                        <polygon id="XMLID_201_" fill="#122E53" fill-rule="nonzero" points="388.327469 373.632873 393.327469 385.932873 392.727469 353.032873"></polygon>
                        <path d="M541.227469,616.532873 L561.727469,637.632873 C561.727469,637.632873 536.327469,643.232873 512.127469,601.032873 L541.227469,616.532873 Z" id="XMLID_210_" fill="#142E54" fill-rule="nonzero"></path>
                        <path d="M641.127469,262.832873 L641.127469,262.832873 C638.627469,267.132873 633.527469,269.232873 628.727469,267.932873 L628.427469,267.832873 C624.327469,266.732873 621.027469,263.832873 619.527469,259.932873 L612.327469,241.632873 L634.727469,232.832873 L642.027469,251.332873 C643.427469,255.132873 643.127469,259.332873 641.127469,262.832873 Z" id="XMLID_215_" fill="#45D5C1" fill-rule="nonzero"></path>
                    </g>
                </g>
            </g>
        </g>
    </g>
</svg>